<svg xmlns="http://www.w3.org/2000/svg" xmlns:xlink="http://www.w3.org/1999/xlink" viewBox="0 0 90 90"><defs><style>.cls-1{fill:url(#radial-gradient);}.cls-2{fill:#fff;}</style><radialGradient id="radial-gradient" cx="45" cy="44.89" r="45" gradientTransform="matrix(1, 0, 0, -1, 0, 89.89)" gradientUnits="userSpaceOnUse"><stop offset="0" stop-color="#007d69"/><stop offset="1" stop-color="#029569"/></radialGradient></defs><g id="Layer_2" data-name="Layer 2"><g id="Layer_1-2" data-name="Layer 1"><circle class="cls-1" cx="45" cy="45" r="45"/><path class="cls-2" d="M44.41,65H33.77a7.54,7.54,0,0,1-7.3-5.19,8.25,8.25,0,0,1-.4-2.56c0-7,0-14.06,0-21.09a7.53,7.53,0,0,1,5.81-7.54,7.92,7.92,0,0,1,1.88-.22c3.8,0,7.61,0,11.42,0a2.78,2.78,0,0,1,.58.05,1.34,1.34,0,0,1,1.14,1.5,1.28,1.28,0,0,1-1.37,1.19H33.83a5,5,0,0,0-3.21,1.08A4.69,4.69,0,0,0,28.8,36q0,10.65,0,21.28a4.84,4.84,0,0,0,5,4.94h21a4.86,4.86,0,0,0,5.07-5.06c0-3.81,0-7.61,0-11.42a2.06,2.06,0,0,1,.4-1.24,1.32,1.32,0,0,1,2.24.56,2.79,2.79,0,0,1,.07.64c0,3.88,0,7.75,0,11.62a7.39,7.39,0,0,1-5.06,7.18,9.74,9.74,0,0,1-3,.45C51.16,65,47.78,65,44.41,65Z"/><path class="cls-2" d="M34.07,55.15l1.13-3.41c1.45-4.27,2.92-8.54,4.34-12.82.2-.59.47-.84,1.11-.79a25.05,25.05,0,0,0,2.6,0,.7.7,0,0,1,.8.57q2.41,7.21,4.89,14.42l.67,2c-1,0-1.84,0-2.7,0-.14,0-.33-.31-.4-.51-.37-1-.71-2.05-1-3.08a.72.72,0,0,0-.79-.59c-1.89,0-3.78,0-5.67,0a.66.66,0,0,0-.76.54c-.32,1-.7,2.05-1,3.08-.13.42-.32.62-.78.6C35.7,55.12,35,55.15,34.07,55.15Zm10.23-7-2.38-7-.15,0-2.37,7Z"/><path class="cls-2" d="M51.81,46.68c0-2.54,0-5.08,0-7.62,0-.56.14-.8.73-.74a9.75,9.75,0,0,0,1.43,0c.5,0,.63.17.63.64,0,2.59,0,5.17,0,7.76s0,5.13,0,7.69c0,.55-.12.81-.72.75a8.66,8.66,0,0,0-1.44,0c-.49,0-.63-.17-.62-.64,0-2.61,0-5.22,0-7.83Z"/><path class="cls-2" d="M56.38,26.16a5.31,5.31,0,0,0,4.53,4.55,5.36,5.36,0,0,0-4.52,4.54,5.32,5.32,0,0,0-4.55-4.52A5.31,5.31,0,0,0,56.38,26.16Z"/><path class="cls-2" d="M64,35.93a3.67,3.67,0,0,0-2.83,3,3.78,3.78,0,0,0-2.91-3,3.79,3.79,0,0,0,2.91-3A3.68,3.68,0,0,0,64,35.93Z"/><path class="cls-2" d="M59.36,27A2.64,2.64,0,0,0,61.12,25,2.37,2.37,0,0,0,62.83,27a2.5,2.5,0,0,0-1.71,1.78A2.59,2.59,0,0,0,59.36,27Z"/></g></g></svg>