<svg xmlns="http://www.w3.org/2000/svg" xmlns:xlink="http://www.w3.org/1999/xlink" viewBox="0 0 90 90"><defs><style>.cls-1{fill:url(#radial-gradient);}.cls-2{fill:#fff;}</style><radialGradient id="radial-gradient" cx="45" cy="44.89" r="45" gradientTransform="matrix(1, 0, 0, -1, 0, 89.89)" gradientUnits="userSpaceOnUse"><stop offset="0" stop-color="#007d69"/><stop offset="1" stop-color="#029569"/></radialGradient></defs><g id="Layer_2" data-name="Layer 2"><g id="Layer_1-2" data-name="Layer 1"><circle class="cls-1" cx="45" cy="45" r="45"/><path class="cls-2" d="M32.86,36.78H57.17v18.7A2.81,2.81,0,0,1,54,58.61h-1.5c0,2.17,0,4.27,0,6.38a2.54,2.54,0,0,1-2.44,2.43,2.5,2.5,0,0,1-2.7-2.24c-.08-2.16,0-4.32,0-6.52H42.69v2.57c0,1.26,0,2.52,0,3.78a2.53,2.53,0,0,1-2.21,2.4,2.65,2.65,0,0,1-3-2.61c0-1.79,0-3.59,0-5.38,0-.25,0-.49.07-.81H35.76a2.74,2.74,0,0,1-2.9-2.91V36.78ZM57.18,35H32.84c.22-4.2,2.61-6.82,6.17-8.68l-1.07-1.61-.77-1.16c-.18-.28-.47-.59-.07-.86s.61.12.8.4l1.36,2c.55.83.55.83,1.51.55a14.69,14.69,0,0,1,9.06.2l.35.11c.63-.93,1.24-1.86,1.86-2.78l.22-.33c.17-.25.39-.38.67-.18s.21.42,0,.66l-1.6,2.4L51,26.3C54.54,28.14,57,30.76,57.18,35Zm-5.66-4.73a1.32,1.32,0,0,0-1.29-1.31,1.28,1.28,0,0,0-1.3,1.29,1.27,1.27,0,0,0,1.28,1.3,1.3,1.3,0,0,0,1.31-1.28Zm-10.44,0a1.28,1.28,0,0,0-1.3-1.28,1.33,1.33,0,0,0-1.29,1.32,1.31,1.31,0,0,0,1.32,1.27,1.27,1.27,0,0,0,1.27-1.31Zm23,14.71c0,1.81,0,3.62,0,5.43a2.6,2.6,0,1,1-5.19,0q0-5.51,0-11a2.6,2.6,0,0,1,5.14-.54,4.14,4.14,0,0,1,0,.79v5.33Zm-33,0c0,1.89,0,3.78,0,5.68a2.58,2.58,0,0,1-4.78,1.26,3,3,0,0,1-.39-1.36q0-5.58,0-11.16a2.6,2.6,0,0,1,5.19,0c0,1.86,0,3.72,0,5.58Z"/></g></g></svg>