<svg xmlns="http://www.w3.org/2000/svg" xmlns:xlink="http://www.w3.org/1999/xlink" viewBox="0 0 90 90"><defs><style>.cls-1{fill:url(#radial-gradient);}.cls-2,.cls-3{fill:#fff;}.cls-3{fill-rule:evenodd;}</style><radialGradient id="radial-gradient" cx="45" cy="45" r="45" gradientUnits="userSpaceOnUse"><stop offset="0" stop-color="#007d69"/><stop offset="1" stop-color="#029569"/></radialGradient></defs><g id="Layer_2" data-name="Layer 2"><g id="Layer_1-2" data-name="Layer 1"><circle class="cls-1" cx="45" cy="45" r="45"/><g id="g1865"><path id="path1857" class="cls-2" d="M33.42,40.66a5.12,5.12,0,0,0,.2,1.57,8.85,8.85,0,0,0,.56,1.27.74.74,0,0,1,.12.41.7.7,0,0,1-.33.53l-1.11.74a.91.91,0,0,1-.46.16.81.81,0,0,1-.53-.25,6,6,0,0,1-.64-.83c-.17-.3-.35-.64-.54-1a6.54,6.54,0,0,1-5.19,2.43A4.82,4.82,0,0,1,22,44.38a5,5,0,0,1,.3-7A6.38,6.38,0,0,1,26.59,36a13.64,13.64,0,0,1,1.87.14c.66.09,1.33.23,2,.39V35.22a3.89,3.89,0,0,0-.83-2.82,4,4,0,0,0-2.87-.81,8,8,0,0,0-1.91.23,14.1,14.1,0,0,0-1.91.6c-.28.12-.49.19-.61.23a1.45,1.45,0,0,1-.29.05c-.24,0-.37-.18-.37-.55v-.86a1.08,1.08,0,0,1,.13-.62,1.29,1.29,0,0,1,.49-.37,10.57,10.57,0,0,1,2.22-.8,11.22,11.22,0,0,1,2.76-.33,6.46,6.46,0,0,1,4.62,1.43,5.84,5.84,0,0,1,1.47,4.34v5.72Zm-7.16,2.68A5.45,5.45,0,0,0,28.07,43a3.92,3.92,0,0,0,1.68-1.13,2.69,2.69,0,0,0,.6-1.13,6.06,6.06,0,0,0,.18-1.53v-.74a13.11,13.11,0,0,0-1.63-.3,13.32,13.32,0,0,0-1.65-.11,4,4,0,0,0-2.63.71,2.42,2.42,0,0,0-.87,2,2.27,2.27,0,0,0,2.51,2.52Zm14.17,1.91a1,1,0,0,1-.67-.18,1.4,1.4,0,0,1-.37-.69L35.24,30.74a2.83,2.83,0,0,1-.16-.71.39.39,0,0,1,.42-.44h1.73a1,1,0,0,1,.69.18,1.49,1.49,0,0,1,.36.69l3,11.68L44,30.46a1.25,1.25,0,0,1,.34-.69,1.18,1.18,0,0,1,.7-.18h1.42a1.07,1.07,0,0,1,.7.18,1.2,1.2,0,0,1,.34.69l2.79,11.82,3-11.82a1.59,1.59,0,0,1,.35-.69,1.12,1.12,0,0,1,.69-.18H56a.39.39,0,0,1,.44.44,1.59,1.59,0,0,1,0,.29,2.33,2.33,0,0,1-.13.44L52,44.4a1.36,1.36,0,0,1-.37.69,1.17,1.17,0,0,1-.67.17H49.48a1.07,1.07,0,0,1-.7-.17,1.21,1.21,0,0,1-.34-.71L45.71,33,43,44.36a1.37,1.37,0,0,1-.34.71,1.11,1.11,0,0,1-.7.18Zm22.68.47a11.76,11.76,0,0,1-2.72-.31,8.62,8.62,0,0,1-2-.71,1.36,1.36,0,0,1-.55-.49,1.27,1.27,0,0,1-.1-.5v-.9c0-.37.14-.55.4-.55a.91.91,0,0,1,.32.06c.11,0,.26.1.44.17a9.17,9.17,0,0,0,1.94.62,10.76,10.76,0,0,0,2.1.21,4.76,4.76,0,0,0,2.58-.58,1.9,1.9,0,0,0,.92-1.68,1.7,1.7,0,0,0-.48-1.23,4.37,4.37,0,0,0-1.78-.92l-2.56-.79a5.4,5.4,0,0,1-2.82-1.8,4.17,4.17,0,0,1-.89-2.56,3.9,3.9,0,0,1,.48-2,4.53,4.53,0,0,1,1.27-1.45,5.88,5.88,0,0,1,1.84-.92,7.68,7.68,0,0,1,2.22-.3,9.34,9.34,0,0,1,1.18.07c.41.06.78.13,1.15.2s.69.18,1,.28a4,4,0,0,1,.75.32,1.61,1.61,0,0,1,.53.44,1,1,0,0,1,.15.58v.83c0,.37-.14.57-.4.57a1.73,1.73,0,0,1-.67-.22A8.24,8.24,0,0,0,64,31.52a4.62,4.62,0,0,0-2.35.49,1.71,1.71,0,0,0-.83,1.57,1.65,1.65,0,0,0,.53,1.25,5.2,5.2,0,0,0,1.94,1l2.51.79a5.37,5.37,0,0,1,2.73,1.69,4,4,0,0,1,.82,2.47,4.55,4.55,0,0,1-.46,2.05,4.7,4.7,0,0,1-1.29,1.55,5.57,5.57,0,0,1-2,1,8.26,8.26,0,0,1-2.52.37Z"/><g id="g1863"><path id="path1859" class="cls-3" d="M66.44,54.3C60.64,58.59,52.2,60.87,45,60.87a38.89,38.89,0,0,1-26.25-10c-.54-.49-.05-1.17.6-.78a53,53,0,0,0,26.26,7A52.5,52.5,0,0,0,65.6,53C66.57,52.52,67.4,53.59,66.44,54.3Z"/><path id="path1861" class="cls-3" d="M68.86,51.55c-.74-1-4.91-.46-6.79-.23-.57.07-.66-.43-.15-.8,3.32-2.33,8.78-1.65,9.41-.88s-.18,6.25-3.28,8.86c-.48.41-.94.2-.73-.33C68,56.42,69.6,52.48,68.86,51.55Z"/></g></g></g></g></svg>