<svg xmlns="http://www.w3.org/2000/svg" xmlns:xlink="http://www.w3.org/1999/xlink" viewBox="0 0 90 90"><defs><style>.cls-1{fill:url(#radial-gradient);}.cls-2{fill:#fff;}</style><radialGradient id="radial-gradient" cx="45" cy="44.89" r="45" gradientTransform="matrix(1, 0, 0, -1, 0, 89.89)" gradientUnits="userSpaceOnUse"><stop offset="0" stop-color="#007d69"/><stop offset="1" stop-color="#029569"/></radialGradient></defs><g id="Layer_2" data-name="Layer 2"><g id="Layer_1-2" data-name="Layer 1"><circle class="cls-1" cx="45" cy="45" r="45"/><path class="cls-2" d="M45.74,48.48v-5h17a17.29,17.29,0,0,1,.25,3c0,3.78-1,8.45-4.36,11.77s-7.37,5.17-12.85,5.17A18.68,18.68,0,0,1,27.05,45,18.68,18.68,0,0,1,45.74,26.58a17.53,17.53,0,0,1,12.62,5.07l-3.55,3.56a12.77,12.77,0,0,0-9.07-3.6,13.39,13.39,0,0,0,0,26.78A12.32,12.32,0,0,0,55,54.7a10.43,10.43,0,0,0,2.73-6.23Z"/></g></g></svg>