<svg xmlns="http://www.w3.org/2000/svg" xmlns:xlink="http://www.w3.org/1999/xlink" viewBox="0 0 90 90"><defs><style>.cls-1{fill:url(#radial-gradient);}.cls-2{fill:#fff;}</style><radialGradient id="radial-gradient" cx="45" cy="44.89" r="45" gradientTransform="matrix(1, 0, 0, -1, 0, 89.89)" gradientUnits="userSpaceOnUse"><stop offset="0" stop-color="#007d69"/><stop offset="1" stop-color="#029569"/></radialGradient></defs><g id="Layer_2" data-name="Layer 2"><g id="Layer_1-2" data-name="Layer 1"><circle class="cls-1" cx="45" cy="45" r="45"/><path class="cls-2" d="M40.17,45.58a5.53,5.53,0,1,1-5.53-5.51A5.44,5.44,0,0,1,40.17,45.58Zm-2.42,0a3.12,3.12,0,1,0-3.11,3.34A3.18,3.18,0,0,0,37.75,45.58Z"/><path class="cls-2" d="M52.1,45.58a5.53,5.53,0,1,1-5.53-5.51A5.44,5.44,0,0,1,52.1,45.58Zm-2.42,0a3.12,3.12,0,1,0-3.11,3.34A3.18,3.18,0,0,0,49.68,45.58Z"/><path class="cls-2" d="M63.53,40.4v9.9c0,4.07-2.4,5.73-5.24,5.73a5.24,5.24,0,0,1-4.88-3.25l2.1-.88a3.06,3.06,0,0,0,2.78,2c1.82,0,2.94-1.12,2.94-3.23v-.79h-.08a3.81,3.81,0,0,1-2.91,1.25,5.52,5.52,0,0,1,0-11,3.83,3.83,0,0,1,2.91,1.23h.08v-.9ZM61.4,45.6a3.1,3.1,0,0,0-2.94-3.36,3.35,3.35,0,0,0,0,6.68A3.08,3.08,0,0,0,61.4,45.6Z"/><path class="cls-2" d="M67.32,34.6V50.75H65V34.6Z"/><path class="cls-2" d="M76.52,47.39l1.88,1.26a5.52,5.52,0,0,1-4.6,2.44,5.39,5.39,0,0,1-5.47-5.51,5.24,5.24,0,0,1,5.2-5.51,5.12,5.12,0,0,1,4.72,3.5l.25.63-7.37,3a2.82,2.82,0,0,0,2.67,1.67,3.15,3.15,0,0,0,2.72-1.53Zm-5.78-2,4.92-2a2.14,2.14,0,0,0-2-1.17A3,3,0,0,0,70.74,45.41Z"/><path class="cls-2" d="M20.18,44.15V41.81h7.88a7.42,7.42,0,0,1,.12,1.41,7.72,7.72,0,0,1-2,5.47,7.83,7.83,0,0,1-6,2.4,8.56,8.56,0,1,1,0-17.12,8.19,8.19,0,0,1,5.87,2.36L24.4,38a6,6,0,0,0-4.22-1.67,6.22,6.22,0,0,0,0,12.44A5.74,5.74,0,0,0,24.5,47a4.86,4.86,0,0,0,1.27-2.9Z"/></g></g></svg>