<svg width="867" height="383" viewBox="0 0 867 383" fill="none" xmlns="http://www.w3.org/2000/svg">
<g filter="url(#filter0_d_174028_6891)">
<path d="M16.126 277.648V238.053L156.293 16.6364H187.494V74.9204H167.696L67.4413 233.618V236.152H259.557V277.648H16.126ZM169.914 341V265.611L170.23 247.555V16.6364H216.636V341H169.914ZM425.178 346.385C400.154 346.279 378.773 339.68 361.034 326.587C343.295 313.495 329.727 294.436 320.33 269.412C310.933 244.388 306.234 214.243 306.234 178.977C306.234 143.816 310.933 113.777 320.33 88.8579C329.833 63.9394 343.454 44.9337 361.192 31.8409C379.037 18.7481 400.365 12.2017 425.178 12.2017C449.991 12.2017 471.267 18.8009 489.006 31.9993C506.744 45.0921 520.312 64.0978 529.709 89.0163C539.212 113.829 543.964 143.816 543.964 178.977C543.964 214.348 539.265 244.546 529.868 269.57C520.471 294.489 506.903 313.547 489.164 326.746C471.425 339.839 450.097 346.385 425.178 346.385ZM425.178 304.097C447.14 304.097 464.298 293.38 476.652 271.946C489.111 250.512 495.341 219.522 495.341 178.977C495.341 152.052 492.49 129.298 486.788 110.714C481.192 92.0256 473.115 77.8769 462.556 68.2685C452.103 58.5544 439.644 53.6974 425.178 53.6974C403.322 53.6974 386.164 64.4673 373.704 86.0071C361.245 107.547 354.963 138.537 354.857 178.977C354.857 206.007 357.655 228.866 363.251 247.555C368.953 266.139 377.03 280.235 387.484 289.843C397.937 299.346 410.502 304.097 425.178 304.097ZM590.839 277.648V238.053L731.006 16.6364H762.207V74.9204H742.409L642.154 233.618V236.152H834.27V277.648H590.839ZM744.627 341V265.611L744.943 247.555V16.6364H791.349V341H744.627Z" fill="#7D52F4"/>
</g>
<defs>
<filter id="filter0_d_174028_6891" x="0.125" y="0.201691" width="866.145" height="382.183" filterUnits="userSpaceOnUse" color-interpolation-filters="sRGB">
<feFlood flood-opacity="0" result="BackgroundImageFix"/>
<feColorMatrix in="SourceAlpha" type="matrix" values="0 0 0 0 0 0 0 0 0 0 0 0 0 0 0 0 0 0 127 0" result="hardAlpha"/>
<feOffset dx="8" dy="12"/>
<feGaussianBlur stdDeviation="12"/>
<feColorMatrix type="matrix" values="0 0 0 0 0 0 0 0 0 0 0 0 0 0 0 0 0 0 0.05 0"/>
<feBlend mode="normal" in2="BackgroundImageFix" result="effect1_dropShadow_174028_6891"/>
<feBlend mode="normal" in="SourceGraphic" in2="effect1_dropShadow_174028_6891" result="shape"/>
</filter>
</defs>
</svg>
