<svg width="39" height="42" viewBox="0 0 39 42" fill="none" xmlns="http://www.w3.org/2000/svg">
<rect x="5" y="5" width="32" height="32" rx="16" fill="#171717"/>
<path d="M38.293 31.5364C35.992 35.3128 32.5181 38.2323 28.4019 39.8487C24.2857 41.4652 19.7535 41.6897 15.4976 40.4881C11.2418 39.2865 7.4963 36.7248 4.8333 33.1943C2.17029 29.6638 0.736205 25.3586 0.7501 20.9364C0.763995 16.5142 2.22511 12.2181 4.91025 8.70438C7.59538 5.19067 11.3569 2.65254 15.6202 1.47769C19.8835 0.302849 24.4142 0.55589 28.5202 2.19816C32.6262 3.84043 36.0817 6.78165 38.3589 10.5725" stroke="#171717" stroke-width="0.5" stroke-linecap="round"/>
<path d="M23.5024 20.3998L20.284 17.1814L21.1324 16.333L25.7992 20.9998L21.1324 25.6666L20.284 24.8182L23.5024 21.5998H16.1992V20.3998H23.5024Z" fill="white"/>
</svg>
