<svg width="64" height="64" viewBox="0 0 64 64" fill="none" xmlns="http://www.w3.org/2000/svg">
<path d="M48.6824 4H15.3106C9.06037 4 4 9.061 4 15.312V48.695C4 54.939 9.06037 60 15.3106 60H48.6894C54.9326 60 60 54.939 60 48.688V15.312C59.993 9.061 54.9326 4 48.6824 4Z" fill="url(#paint0_linear_1_11784)"/>
<path d="M45 32.5C45 35.5139 44.4363 38.1052 43.3089 40.2738C42.1816 42.4331 40.6361 44.0963 38.6726 45.2633C36.7185 46.4211 34.4967 47 32.007 47C29.508 47 27.2768 46.4211 25.3133 45.2633C23.3592 44.0963 21.8184 42.4285 20.6911 40.26C19.5637 38.0914 19 35.5048 19 32.5C19 29.4861 19.5637 26.8994 20.6911 24.74C21.8184 22.5715 23.3592 20.9083 25.3133 19.7505C27.2768 18.5835 29.508 18 32.007 18C34.4967 18 36.7185 18.5835 38.6726 19.7505C40.6361 20.9083 42.1816 22.5715 43.3089 24.74C44.4363 26.8994 45 29.4861 45 32.5ZM40.6878 32.5C40.6878 30.2028 40.3073 28.2685 39.5463 26.6972C38.7948 25.1168 37.7613 23.9222 36.4461 23.1136C35.1402 22.2958 33.6605 21.8869 32.007 21.8869C30.3442 21.8869 28.8598 22.2958 27.5539 23.1136C26.2481 23.9222 25.2146 25.1168 24.4537 26.6972C23.7021 28.2685 23.3263 30.2028 23.3263 32.5C23.3263 34.7972 23.7021 36.7361 24.4537 38.3165C25.2146 39.8878 26.2481 41.0824 27.5539 41.9002C28.8598 42.7088 30.3442 43.1131 32.007 43.1131C33.6605 43.1131 35.1402 42.7088 36.4461 41.9002C37.7613 41.0824 38.7948 39.8878 39.5463 38.3165C40.3073 36.7361 40.6878 34.7972 40.6878 32.5Z" fill="white"/>
<defs>
<linearGradient id="paint0_linear_1_11784" x1="31.9965" y1="4" x2="31.9965" y2="60" gradientUnits="userSpaceOnUse">
<stop stop-color="#4D0EFC"/>
<stop offset="1" stop-color="#490CEF"/>
</linearGradient>
</defs>
</svg>
