<svg width="229" height="63" viewBox="0 0 229 63" fill="none" xmlns="http://www.w3.org/2000/svg">
<path d="M19.2977 25.3983C26.8205 21.8004 32.7079 15.695 36.0877 8.06313C33.9072 5.77358 31.0725 4.13819 28.0198 3.15695L26.3844 2.61182C26.2753 2.82987 26.1663 3.15696 26.1663 3.37501C23.5497 10.7888 18.2074 16.7852 11.0117 20.1651C5.99646 22.5636 2.28955 26.9247 0.545132 32.158L0 33.7934C0.218053 33.9024 0.545137 34.0114 0.763189 34.0114C2.83469 34.7746 4.90619 35.7558 6.86866 36.9551C9.59432 32.0489 13.9554 27.9059 19.2977 25.3983Z" fill="white"/>
<path d="M50.9153 25.8345C46.8813 31.9399 41.321 36.8461 34.4523 40.1169C28.892 42.7336 24.6399 47.6398 22.6775 53.5272L22.1323 55.3806C24.2038 57.2341 26.7114 58.6514 29.4371 59.5236L31.0725 60.0688C31.1815 59.8507 31.2905 59.5236 31.2905 59.3056C33.9072 51.8918 39.2495 45.8953 46.4452 42.5155C51.4604 40.1169 55.2763 35.7559 56.9117 30.5226L57.4569 28.8872C55.1673 28.2331 52.9868 27.1428 50.9153 25.8345Z" fill="white"/>
<path d="M17.7712 49.711C20.4969 43.1694 25.5121 37.8271 31.9447 34.7744C37.8321 31.9397 42.7383 27.5786 46.1181 22.2364C43.6105 19.8378 41.539 17.1121 40.0126 13.8413C35.9786 21.2551 29.6551 27.2516 21.9142 30.9585C17.4442 33.03 13.8463 36.6278 11.6658 40.9889C14.0644 43.2785 16.0268 46.1131 17.5532 49.2749C17.5532 49.2749 17.6622 49.493 17.7712 49.711Z" fill="white"/>
<path d="M70.45 44.3983H88.8231V39.3056H76.3654V16.9757H70.45V44.3983Z" fill="white"/>
<path d="M108.019 24.6541H102.534V35.4664C102.534 37.9736 100.85 39.854 98.4599 39.854C96.2269 39.854 94.6599 38.1303 94.6599 35.7406V24.6541H89.2145V36.9551C89.2145 41.4602 92.1135 44.7117 96.5403 44.7117C99.2434 44.7117 101.437 43.5365 102.534 41.6561V44.3983H108.019V24.6541Z" fill="white"/>
<path d="M110.056 44.3983H115.541V33.1943C115.541 30.6479 116.99 28.9633 119.262 28.9633C121.378 28.9633 122.71 30.6479 122.71 33.1943V44.3983H128.194V33.1943C128.194 30.6479 129.644 28.9633 131.916 28.9633C134.031 28.9633 135.402 30.6479 135.402 33.1943V44.3983H140.848V31.4705C140.848 27.5139 138.066 24.3407 133.757 24.3407C130.584 24.3407 128.116 26.0252 127.176 27.9448C126.235 25.5943 124.237 24.3407 121.143 24.3407C118.479 24.3407 116.598 25.6334 115.541 27.4355V24.6541H110.056V44.3983Z" fill="white"/>
<path d="M142.716 16.0747V21.8335H148.514V16.0747H142.716ZM142.873 44.3983H148.357V24.6541H142.873V44.3983Z" fill="white"/>
<path d="M150.402 44.3983H155.886V33.586C155.886 31.0396 157.571 29.1984 159.961 29.1984C162.233 29.1984 163.761 30.9221 163.761 33.3118V44.3983H169.245V32.0973C169.245 27.553 166.346 24.3407 161.88 24.3407C159.177 24.3407 156.983 25.4767 155.886 27.3963V24.6541H150.402V44.3983Z" fill="white"/>
<path d="M180.685 44.7117C186.757 44.7117 191.105 40.4025 191.105 34.5262C191.105 28.6499 186.757 24.3407 180.685 24.3407C174.612 24.3407 170.264 28.6499 170.264 34.5262C170.264 40.4025 174.612 44.7117 180.685 44.7117ZM180.685 40.0107C177.746 40.0107 175.748 37.7777 175.748 34.5262C175.748 31.2355 177.746 29.0025 180.685 29.0025C183.623 29.0025 185.621 31.2355 185.621 34.5262C185.621 37.7777 183.623 40.0107 180.685 40.0107Z" fill="white"/>
<path d="M210.968 24.6541H205.484V35.4664C205.484 37.9736 203.799 39.854 201.409 39.854C199.176 39.854 197.609 38.1303 197.609 35.7406V24.6541H192.164V36.9551C192.164 41.4602 195.063 44.7117 199.49 44.7117C202.193 44.7117 204.387 43.5365 205.484 41.6561V44.3983H210.968V24.6541Z" fill="white"/>
<path d="M220.214 44.7117C224.836 44.7117 227.892 42.2437 227.892 38.4829C227.892 29.551 217.08 34.1345 217.08 30.0994C217.08 28.8458 218.138 28.1798 219.665 28.1798C221.154 28.1798 222.682 29.0809 222.917 30.7654H227.657C227.461 26.8871 224.249 24.3407 219.509 24.3407C215.474 24.3407 212.457 26.8087 212.457 30.2953C212.457 38.6004 223.074 34.6437 223.074 38.6788C223.074 39.7757 221.898 40.5984 220.214 40.5984C218.177 40.5984 216.806 39.5014 216.61 37.7386H211.909C212.105 42.0087 215.395 44.7117 220.214 44.7117Z" fill="white"/>
</svg>
