<svg width="220" height="64" viewBox="0 0 220 64" fill="none" xmlns="http://www.w3.org/2000/svg">
<path fill-rule="evenodd" clip-rule="evenodd" d="M26.7685 5.16082C26.109 5.02517 25.4287 5.02517 24.7692 5.16082C24.0068 5.31762 23.3254 5.69928 22.7836 6.00271L22.636 6.0852L4.27555 16.2854C4.22479 16.3136 4.17249 16.3424 4.11889 16.372C3.54542 16.6878 2.82437 17.085 2.27064 17.6859C1.7919 18.2054 1.4296 18.8211 1.20798 19.4919C0.951633 20.2677 0.954632 21.0909 0.957017 21.7456C0.95724 21.8068 0.957458 21.8665 0.957458 21.9246V42.0642C0.957458 42.1223 0.95724 42.182 0.957017 42.2432C0.954632 42.8979 0.951633 43.7211 1.20798 44.497C1.42961 45.1677 1.7919 45.7835 2.27064 46.303C2.82437 46.9038 3.54543 47.301 4.11889 47.6169C4.17249 47.6464 4.2248 47.6752 4.27555 47.7034L22.636 57.9036L22.7836 57.9861C23.3254 58.2896 24.0068 58.6712 24.7692 58.828C25.4287 58.9636 26.109 58.9636 26.7685 58.828C27.5309 58.6712 28.2123 58.2895 28.754 57.9861L28.9017 57.9036L47.2621 47.7034C47.2845 47.6909 47.3073 47.6783 47.3303 47.6656C47.3594 47.6496 47.3889 47.6333 47.4188 47.6169C47.9922 47.301 48.7133 46.9039 49.267 46.303C49.7458 45.7835 50.1081 45.1677 50.3297 44.497C50.586 43.7211 50.583 42.8979 50.5806 42.2432C50.5804 42.182 50.5802 42.1223 50.5802 42.0642V21.9246C50.5802 21.8665 50.5804 21.8068 50.5806 21.7456C50.583 21.0909 50.586 20.2677 50.3297 19.4919C50.1081 18.8211 49.7458 18.2054 49.267 17.6859C48.7133 17.085 47.9922 16.6878 47.4188 16.3719L47.4167 16.3708C47.3639 16.3417 47.3122 16.3133 47.2621 16.2854L28.9017 6.0852L28.754 6.0027C28.2123 5.69928 27.5309 5.31761 26.7685 5.16082ZM25.0459 10.423C25.4219 10.2141 25.6138 10.1086 25.757 10.0395L25.7688 10.0338L25.7807 10.0395C25.9239 10.1086 26.1158 10.2141 26.4918 10.423L42.99 19.5887L25.7688 29.156L8.5476 19.5887L25.0459 10.423ZM5.91973 23.8054L23.2876 33.4543L23.2877 52.589L6.68545 43.3656C6.28858 43.1451 6.08596 43.0314 5.9438 42.9408L5.9318 42.9331L5.9309 42.9189C5.92076 42.7506 5.91973 42.5182 5.91973 42.0642V23.8054Z" fill="white"/>
<path d="M73.1617 40.2864H81.0599V44.9407H67.1323V20.1885H73.1617V40.2864Z" fill="white"/>
<path d="M86.6154 23.2208C85.5577 23.2208 84.6879 22.9152 84.0062 22.304C83.3481 21.6694 83.019 20.8936 83.019 19.9769C83.019 19.0366 83.3481 18.2609 84.0062 17.6498C84.6879 17.0151 85.5577 16.6978 86.6154 16.6978C87.6497 16.6978 88.496 17.0151 89.1541 17.6498C89.8358 18.2609 90.1767 19.0366 90.1767 19.9769C90.1767 20.8936 89.8358 21.6694 89.1541 22.304C88.496 22.9152 87.6497 23.2208 86.6154 23.2208ZM89.6125 25.2658V44.9407H83.5831V25.2658H89.6125Z" fill="white"/>
<path d="M101.104 24.9838C102.491 24.9838 103.702 25.2658 104.736 25.83C105.794 26.3941 106.605 27.1346 107.169 28.0513V25.2658H113.198V44.9054C113.198 46.7154 112.834 48.3491 112.105 49.8065C111.4 51.2874 110.307 52.4627 108.826 53.3324C107.369 54.2022 105.547 54.6371 103.361 54.6371C100.446 54.6371 98.0838 53.9436 96.2738 52.5567C94.4638 51.1934 93.4295 49.3364 93.171 46.9857H99.1298C99.3179 47.7379 99.7645 48.3256 100.47 48.7487C101.175 49.1953 102.045 49.4186 103.079 49.4186C104.325 49.4186 105.312 49.0543 106.041 48.3256C106.793 47.6204 107.169 46.4803 107.169 44.9054V42.1199C106.581 43.0367 105.77 43.7889 104.736 44.3765C103.702 44.9407 102.491 45.2227 101.104 45.2227C99.4824 45.2227 98.0133 44.8114 96.6969 43.9887C95.3806 43.1424 94.3345 41.9554 93.5588 40.4274C92.8066 38.876 92.4305 37.0895 92.4305 35.068C92.4305 33.0464 92.8066 31.2717 93.5588 29.7438C94.3345 28.2159 95.3806 27.0406 96.6969 26.2178C98.0133 25.3951 99.4824 24.9838 101.104 24.9838ZM107.169 35.1033C107.169 33.5988 106.746 32.4118 105.9 31.542C105.077 30.6723 104.066 30.2374 102.867 30.2374C101.669 30.2374 100.646 30.6723 99.7998 31.542C98.977 32.3883 98.5657 33.5636 98.5657 35.068C98.5657 36.5724 98.977 37.7712 99.7998 38.6645C100.646 39.5342 101.669 39.9691 102.867 39.9691C104.066 39.9691 105.077 39.5342 105.9 38.6645C106.746 37.7947 107.169 36.6077 107.169 35.1033Z" fill="white"/>
<path d="M129.302 25.0543C131.558 25.0543 133.368 25.8065 134.732 27.3109C136.095 28.7918 136.777 30.8368 136.777 33.4461V44.9407H130.783V34.257C130.783 32.9407 130.442 31.9181 129.76 31.1894C129.079 30.4607 128.162 30.0964 127.01 30.0964C125.858 30.0964 124.941 30.4607 124.26 31.1894C123.578 31.9181 123.237 32.9407 123.237 34.257V44.9407H117.208V18.8486H123.237V27.9103C123.848 27.0406 124.683 26.3471 125.741 25.83C126.798 25.3128 127.985 25.0543 129.302 25.0543Z" fill="white"/>
<path d="M151.58 39.828V44.9407H148.512C146.326 44.9407 144.622 44.4118 143.4 43.354C142.177 42.2727 141.566 40.5215 141.566 38.1003V30.2727H139.168V25.2658H141.566V20.4705H147.595V25.2658H151.545V30.2727H147.595V38.1708C147.595 38.7585 147.737 39.1816 148.019 39.4402C148.301 39.6987 148.771 39.828 149.429 39.828H151.58Z" fill="white"/>
<path d="M160.615 28.0513C161.179 27.1346 161.99 26.3941 163.048 25.83C164.106 25.2658 165.316 24.9838 166.68 24.9838C168.302 24.9838 169.771 25.3951 171.087 26.2178C172.404 27.0406 173.438 28.2159 174.19 29.7438C174.966 31.2717 175.354 33.0464 175.354 35.068C175.354 37.0895 174.966 38.876 174.19 40.4274C173.438 41.9554 172.404 43.1424 171.087 43.9887C169.771 44.8114 168.302 45.2227 166.68 45.2227C165.293 45.2227 164.082 44.9524 163.048 44.4118C162.014 43.8476 161.203 43.1072 160.615 42.1904V44.9407H154.586V18.8486H160.615V28.0513ZM169.218 35.068C169.218 33.5636 168.795 32.3883 167.949 31.542C167.126 30.6723 166.104 30.2374 164.881 30.2374C163.683 30.2374 162.66 30.6723 161.814 31.542C160.991 32.4118 160.58 33.5988 160.58 35.1033C160.58 36.6077 160.991 37.7947 161.814 38.6645C162.66 39.5342 163.683 39.9691 164.881 39.9691C166.08 39.9691 167.103 39.5342 167.949 38.6645C168.795 37.7712 169.218 36.5724 169.218 35.068Z" fill="white"/>
<path d="M187.12 45.2227C185.193 45.2227 183.453 44.8114 181.902 43.9887C180.374 43.1659 179.163 41.9906 178.27 40.4627C177.4 38.9348 176.965 37.1483 176.965 35.1033C176.965 33.0817 177.412 31.307 178.305 29.7791C179.198 28.2276 180.421 27.0406 181.972 26.2178C183.524 25.3951 185.263 24.9838 187.191 24.9838C189.118 24.9838 190.858 25.3951 192.409 26.2178C193.96 27.0406 195.183 28.2276 196.076 29.7791C196.969 31.307 197.416 33.0817 197.416 35.1033C197.416 37.1248 196.958 38.9113 196.041 40.4627C195.148 41.9906 193.913 43.1659 192.338 43.9887C190.787 44.8114 189.048 45.2227 187.12 45.2227ZM187.12 40.0043C188.272 40.0043 189.247 39.5812 190.047 38.735C190.869 37.8888 191.281 36.6782 191.281 35.1033C191.281 33.5283 190.881 32.3177 190.082 31.4715C189.306 30.6253 188.342 30.2022 187.191 30.2022C186.015 30.2022 185.04 30.6253 184.264 31.4715C183.488 32.2942 183.1 33.5048 183.1 35.1033C183.1 36.6782 183.477 37.8888 184.229 38.735C185.005 39.5812 185.968 40.0043 187.12 40.0043Z" fill="white"/>
<path d="M211.898 44.9407L208.125 39.4754L204.952 44.9407H198.428L204.916 34.8917L198.252 25.2658H205.022L208.795 30.6958L211.968 25.2658H218.491L211.898 35.1738L218.667 44.9407H211.898Z" fill="white"/>
</svg>
