<svg width="264" height="64" viewBox="0 0 264 64" fill="none" xmlns="http://www.w3.org/2000/svg">
<path fill-rule="evenodd" clip-rule="evenodd" d="M0 32C18.2756 32 28.7525 21.5232 28.7525 3.24756C28.7525 21.5232 39.2294 32 57.505 32C39.2294 32 28.7525 42.4769 28.7525 60.7525C28.7525 42.4769 18.2756 32 0 32Z" fill="white"/>
<path d="M68.8623 44.9505L78.8995 17.5049H84.5455L94.5827 44.9505H89.2504L87.0548 38.5988H76.351L74.1162 44.9505H68.8623ZM77.7233 34.678H85.6825L81.6833 23.2685L77.7233 34.678Z" fill="white"/>
<path d="M104.649 45.421C102.662 45.421 100.911 44.9897 99.3949 44.1271C97.8788 43.2645 96.6764 42.0621 95.7877 40.52C94.9252 38.9778 94.4939 37.2134 94.4939 35.2269C94.4939 33.2404 94.9252 31.476 95.7877 29.9338C96.6764 28.3917 97.8788 27.1893 99.3949 26.3267C100.911 25.4641 102.662 25.0328 104.649 25.0328C107.132 25.0328 109.223 25.6863 110.922 26.9932C112.621 28.274 113.706 30.0515 114.176 32.3255H108.883C108.622 31.3845 108.099 30.6526 107.315 30.1299C106.557 29.581 105.655 29.3065 104.61 29.3065C103.224 29.3065 102.048 29.8293 101.081 30.8748C100.114 31.9204 99.6301 33.3711 99.6301 35.2269C99.6301 37.0827 100.114 38.5334 101.081 39.579C102.048 40.6245 103.224 41.1473 104.61 41.1473C105.655 41.1473 106.557 40.8859 107.315 40.3631C108.099 39.8404 108.622 39.0954 108.883 38.1283H114.176C113.706 40.3239 112.621 42.0883 110.922 43.4214C109.223 44.7544 107.132 45.421 104.649 45.421Z" fill="white"/>
<path d="M116.67 44.9505V25.5033H121.101L121.532 28.1303C122.159 27.1893 122.983 26.4443 124.002 25.8954C125.048 25.3204 126.25 25.0328 127.609 25.0328C130.615 25.0328 132.745 26.196 134 28.5223C134.706 27.4507 135.647 26.6012 136.823 25.9738C138.025 25.3465 139.332 25.0328 140.744 25.0328C143.279 25.0328 145.227 25.7909 146.586 27.3069C147.945 28.8229 148.625 31.0447 148.625 33.9722V44.9505H143.606V34.4427C143.606 32.7699 143.279 31.4891 142.626 30.6004C141.999 29.7117 141.018 29.2673 139.685 29.2673C138.326 29.2673 137.228 29.7639 136.392 30.7572C135.582 31.7505 135.176 33.1358 135.176 34.9132V44.9505H130.158V34.4427C130.158 32.7699 129.831 31.4891 129.178 30.6004C128.524 29.7117 127.518 29.2673 126.159 29.2673C124.825 29.2673 123.741 29.7639 122.904 30.7572C122.094 31.7505 121.689 33.1358 121.689 34.9132V44.9505H116.67Z" fill="white"/>
<path d="M160.878 45.421C158.918 45.421 157.179 45.0027 155.663 44.1663C154.147 43.3299 152.958 42.1536 152.096 40.6376C151.233 39.1216 150.802 37.3703 150.802 35.3837C150.802 33.3711 151.22 31.5806 152.056 30.0122C152.919 28.4439 154.095 27.2285 155.585 26.3659C157.101 25.4772 158.878 25.0328 160.917 25.0328C162.825 25.0328 164.511 25.4511 165.975 26.2875C167.439 27.1239 168.576 28.274 169.386 29.7378C170.223 31.1754 170.641 32.7829 170.641 34.5604C170.641 34.8479 170.628 35.1485 170.602 35.4621C170.602 35.7758 170.589 36.1025 170.562 36.4423H155.781C155.886 37.9584 156.408 39.1477 157.349 40.0103C158.317 40.8728 159.48 41.3041 160.839 41.3041C161.858 41.3041 162.708 41.0819 163.387 40.6376C164.093 40.1671 164.616 39.5659 164.956 38.834H170.053C169.687 40.0625 169.073 41.1865 168.21 42.2059C167.374 43.1992 166.328 43.9833 165.073 44.5584C163.845 45.1334 162.446 45.421 160.878 45.421ZM160.917 29.1105C159.689 29.1105 158.604 29.4633 157.663 30.1691C156.722 30.8487 156.121 31.8942 155.859 33.3057H165.544C165.465 32.0249 164.995 31.0055 164.132 30.2475C163.27 29.4895 162.198 29.1105 160.917 29.1105Z" fill="white"/>
<path d="M192.83 45.421C190.059 45.421 187.681 44.8328 185.694 43.6566C183.708 42.4542 182.179 40.7944 181.107 38.6772C180.035 36.5338 179.499 34.0637 179.499 31.2669C179.499 28.4701 180.035 26 181.107 23.8566C182.179 21.7132 183.708 20.0404 185.694 18.838C187.681 17.6356 190.059 17.0344 192.83 17.0344C196.124 17.0344 198.816 17.8578 200.907 19.5045C203.024 21.1251 204.344 23.4122 204.867 26.3659H199.339C198.999 24.876 198.267 23.7128 197.143 22.8764C196.045 22.0138 194.581 21.5825 192.752 21.5825C190.216 21.5825 188.23 22.4451 186.792 24.1703C185.354 25.8954 184.636 28.261 184.636 31.2669C184.636 34.2728 185.354 36.6384 186.792 38.3635C188.23 40.0625 190.216 40.9121 192.752 40.9121C194.581 40.9121 196.045 40.52 197.143 39.7358C198.267 38.9255 198.999 37.8146 199.339 36.4031H204.867C204.344 39.2261 203.024 41.4348 200.907 43.0293C198.816 44.6237 196.124 45.421 192.83 45.421Z" fill="white"/>
<path d="M216.563 45.421C214.681 45.421 212.982 44.9897 211.466 44.1271C209.976 43.2645 208.787 42.0752 207.898 40.5592C207.035 39.017 206.604 37.2396 206.604 35.2269C206.604 33.2142 207.048 31.4499 207.937 29.9338C208.826 28.3917 210.015 27.1893 211.505 26.3267C213.021 25.4641 214.72 25.0328 216.602 25.0328C218.458 25.0328 220.131 25.4641 221.621 26.3267C223.137 27.1893 224.326 28.3917 225.189 29.9338C226.077 31.4499 226.522 33.2142 226.522 35.2269C226.522 37.2396 226.077 39.017 225.189 40.5592C224.326 42.0752 223.137 43.2645 221.621 44.1271C220.105 44.9897 218.419 45.421 216.563 45.421ZM216.563 41.0689C217.87 41.0689 219.007 40.5853 219.974 39.6182C220.941 38.6249 221.425 37.1612 221.425 35.2269C221.425 33.2926 220.941 31.8419 219.974 30.8748C219.007 29.8816 217.883 29.3849 216.602 29.3849C215.269 29.3849 214.119 29.8816 213.152 30.8748C212.211 31.8419 211.74 33.2926 211.74 35.2269C211.74 37.1612 212.211 38.6249 213.152 39.6182C214.119 40.5853 215.256 41.0689 216.563 41.0689Z" fill="white"/>
<path d="M229.048 44.9505V25.5033H233.518L233.989 29.1497C234.694 27.895 235.648 26.9018 236.851 26.1699C238.079 25.4118 239.517 25.0328 241.164 25.0328V30.3259H239.752C238.654 30.3259 237.674 30.4958 236.812 30.8356C235.949 31.1754 235.269 31.7635 234.773 32.6C234.302 33.4364 234.067 34.5996 234.067 36.0895V44.9505H229.048Z" fill="white"/>
<path d="M242.633 53.5762V25.5033H247.103L247.652 28.2871C248.279 27.4245 249.103 26.6665 250.122 26.013C251.168 25.3596 252.514 25.0328 254.16 25.0328C255.99 25.0328 257.624 25.4772 259.061 26.3659C260.499 27.2546 261.636 28.4701 262.473 30.0122C263.309 31.5544 263.727 33.3057 263.727 35.2661C263.727 37.2265 263.309 38.9778 262.473 40.52C261.636 42.036 260.499 43.2384 259.061 44.1271C257.624 44.9897 255.99 45.421 254.16 45.421C252.697 45.421 251.416 45.1465 250.318 44.5976C249.22 44.0487 248.332 43.2776 247.652 42.2843V53.5762H242.633ZM253.102 41.0297C254.696 41.0297 256.016 40.4938 257.062 39.4221C258.107 38.3505 258.63 36.9651 258.63 35.2661C258.63 33.5671 258.107 32.1687 257.062 31.0709C256.016 29.973 254.696 29.4241 253.102 29.4241C251.481 29.4241 250.148 29.973 249.103 31.0709C248.083 32.1425 247.574 33.5279 247.574 35.2269C247.574 36.9259 248.083 38.3243 249.103 39.4221C250.148 40.4938 251.481 41.0297 253.102 41.0297Z" fill="white"/>
</svg>
