<svg width="238" height="64" viewBox="0 0 238 64" fill="none" xmlns="http://www.w3.org/2000/svg">
<g clip-path="url(#clip0_1_11872)">
<path d="M35.6904 6.0148L30.1729 4.53638L25.5233 21.8892L21.3255 6.22296L15.8079 7.70138L20.3434 24.6276L9.0466 13.3309L5.00748 17.37L17.3986 29.7612L1.96743 25.6264L0.489014 31.1439L17.3495 35.6617C17.1565 34.8291 17.0543 33.9616 17.0543 33.0702C17.0543 26.7607 22.1692 21.6458 28.4787 21.6458C34.7882 21.6458 39.9031 26.7607 39.9031 33.0702C39.9031 33.9558 39.8022 34.818 39.6116 35.6457L54.9346 39.7515L56.413 34.234L39.4854 29.6983L54.9177 25.5632L53.4392 20.0457L36.5124 24.5812L47.8091 13.2845L43.7699 9.24541L31.5507 21.4647L35.6904 6.0148Z" fill="white"/>
<path d="M39.5954 35.7099C39.1224 37.7099 38.1237 39.5065 36.7534 40.946L47.8542 52.047L51.8934 48.0079L39.5954 35.7099Z" fill="white"/>
<path d="M36.6413 41.062C35.2544 42.4785 33.5018 43.5356 31.5364 44.0803L35.5758 59.1555L41.0933 57.677L36.6413 41.062Z" fill="white"/>
<path d="M31.3303 44.1355C30.4185 44.3699 29.4627 44.4945 28.4778 44.4945C27.4225 44.4945 26.4007 44.3514 25.4306 44.0836L21.3875 59.1725L26.905 60.6508L31.3303 44.1355Z" fill="white"/>
<path d="M25.2355 44.0279C23.3001 43.4561 21.5787 42.3856 20.2201 40.9651L9.09192 52.0933L13.131 56.1324L25.2355 44.0279Z" fill="white"/>
<path d="M20.1284 40.8667C18.7932 39.4372 17.8206 37.6645 17.3576 35.6955L1.98452 39.8147L3.46293 45.3322L20.1284 40.8667Z" fill="white"/>
</g>
<path d="M89.6137 17.5022V37.3849L76.8684 17.5022H71.7703V44.9537H76.8684V25.2278L89.6137 44.9537H94.7119V17.5022H89.6137Z" fill="white"/>
<path d="M97.0091 22.6396H102.264V17.5022H97.0091V22.6396ZM97.0875 44.9537V25.3455H102.186V44.9537H97.0875Z" fill="white"/>
<path d="M124.121 35.1496C124.121 28.3652 119.297 25.1494 114.199 25.1102C109.062 25.071 104.317 28.3652 104.317 35.1496C104.317 41.934 109.062 45.2282 114.199 45.189C118.866 45.1498 122.082 42.9929 123.572 39.4242L119.611 37.7771C118.395 40.2085 116.474 41.0713 114.199 41.1105C112.238 41.1497 110.003 40.2085 109.532 36.7183H124.003C124.082 36.2084 124.121 35.6986 124.121 35.1496ZM114.199 29.1495C116.16 29.1887 118.16 30.2475 118.787 33.0711H109.611C110.277 30.2083 112.277 29.1103 114.199 29.1495Z" fill="white"/>
<path d="M135.903 28.9926V25.1102H132.687V19.8552L127.589 21.4238V25.1102H124.373V28.9926H127.589V39.1497C127.589 42.9929 127.903 44.9537 133.864 44.9537H135.236V40.483H133.864C132.922 40.483 132.687 40.3262 132.687 39.1497V28.9926H135.903Z" fill="white"/>
<path d="M143.478 40.6791L154.302 29.6201V25.3455H138.067V29.6201H148.577L137.753 40.6791V44.9537H154.42V40.6791H143.478Z" fill="white"/>
<path d="M156.248 39.4242L161.385 38.6399C161.738 40.6007 164.052 41.3458 165.464 41.3458C166.915 41.3458 169.424 41.0321 169.424 38.6791C169.424 34.0908 156.836 39.8164 156.836 31.0319C156.836 25.3847 163.385 25.071 165.464 25.071C167.424 25.071 173.111 25.3847 174.287 29.9338L169.424 30.9534C168.993 28.875 166.797 28.4828 165.62 28.4828C164.444 28.4828 161.934 28.7573 161.934 31.0319C161.934 35.581 174.523 29.7769 174.523 38.6791C174.523 44.6792 167.62 45.189 165.464 45.189C163.503 45.189 157.267 44.6792 156.248 39.4242Z" fill="white"/>
<path d="M181.146 35.1496C181.146 39.934 183.695 41.385 186.361 41.3458C188.754 41.3066 190.401 40.3262 191.381 37.581L195.577 39.6203C194.048 43.6203 190.322 45.1498 186.361 45.189C181.224 45.2282 176.047 41.934 176.047 35.1496C176.047 28.3652 181.224 25.071 186.361 25.1102C190.322 25.1494 194.048 26.6788 195.577 30.6789L191.381 32.7182C190.401 29.973 188.754 28.9926 186.361 28.9534C183.695 28.9142 181.146 30.3652 181.146 35.1496Z" fill="white"/>
<path d="M209.263 25.0318C206.636 25.0318 204.244 26.4043 202.714 29.3456V17.5022H197.616V44.9537H202.714V38.0124C202.714 29.0318 206.44 28.2867 207.812 28.2867C210.009 28.2867 210.322 30.5613 210.322 33.8947V44.9537H215.42V33.8947C215.42 29.7377 214.754 25.0318 209.263 25.0318Z" fill="white"/>
<path d="M236.945 35.1496C236.945 28.3652 232.121 25.1494 227.023 25.1102C221.886 25.071 217.14 28.3652 217.14 35.1496C217.14 41.934 221.886 45.2282 227.023 45.189C231.69 45.1498 234.905 42.9929 236.396 39.4242L232.435 37.7771C231.219 40.2085 229.297 41.0713 227.023 41.1105C225.062 41.1497 222.827 40.2085 222.356 36.7183H236.827C236.905 36.2084 236.945 35.6986 236.945 35.1496ZM227.023 29.1495C228.984 29.1887 230.984 30.2475 231.611 33.0711H222.435C223.101 30.2083 225.101 29.1103 227.023 29.1495Z" fill="white"/>
<defs>
<clipPath id="clip0_1_11872">
<rect width="57.5174" height="57.5174" fill="white" transform="translate(0.043457 3.24121)"/>
</clipPath>
</defs>
</svg>
