<svg width="216" height="64" viewBox="0 0 216 64" fill="none" xmlns="http://www.w3.org/2000/svg">
<path d="M20.9939 44.283C32.3003 44.283 41.466 35.1174 41.466 23.811C41.466 22.5296 41.3483 21.2757 41.123 20.0595C39.9069 19.8343 38.653 19.7166 37.3716 19.7166C26.0652 19.7166 16.8995 28.8822 16.8995 40.1886C16.8995 41.47 17.0173 42.7239 17.2425 43.9401C18.4587 44.1653 19.7126 44.283 20.9939 44.283Z" fill="white"/>
<path fill-rule="evenodd" clip-rule="evenodd" d="M17.2423 43.9403C7.72756 42.1782 0.521729 33.8362 0.521729 23.8112C0.521729 12.5048 9.68738 3.33911 20.9938 3.33911C31.0188 3.33911 39.3608 10.5449 41.1229 20.0597C39.9067 19.8345 38.6528 19.7168 37.3714 19.7168C26.065 19.7168 16.8994 28.8824 16.8994 40.1888C16.8994 41.4702 17.0171 42.7241 17.2423 43.9403Z" fill="white"/>
<path fill-rule="evenodd" clip-rule="evenodd" d="M20.9939 44.2831C32.3003 44.2831 41.4659 35.1174 41.4659 23.811C41.4659 22.5296 41.3482 21.2757 41.123 20.0596C50.6378 21.8217 57.8436 30.1637 57.8436 40.1887C57.8436 51.4951 48.6779 60.6607 37.3715 60.6607C27.3465 60.6607 19.0045 53.4549 17.2424 43.9401C18.4586 44.1653 19.7125 44.2831 20.9939 44.2831Z" fill="white"/>
<path d="M88.5237 45.3404C95.5195 45.3404 100.561 41.393 101.069 35.5306H95.2069C94.7379 38.3446 92.0411 40.2596 88.5237 40.2596C84.1073 40.2596 80.7071 37.2112 80.7071 31.3487C80.7071 25.4863 84.1073 22.3987 88.5237 22.3987C91.963 22.3987 94.6597 24.3138 95.0505 27.1668H101.187C100.444 21.2653 95.4023 17.357 88.5237 17.357C81.2152 17.357 74.8055 22.1251 74.8055 31.3487C74.8055 40.5723 81.0979 45.3404 88.5237 45.3404Z" fill="white"/>
<path d="M111.949 25.0173C106.556 25.0173 103.351 28.183 103.116 32.1304H107.963C108.041 30.4889 109.252 29.0037 111.636 29.0037C113.864 29.0037 115.154 30.1371 115.154 31.7786C115.154 32.5994 114.646 33.2247 113.669 33.2247H110.347C106.048 33.2247 103.155 35.5697 103.155 39.4389C103.155 42.8 105.774 45.3404 109.604 45.3404C112.301 45.3404 114.489 44.1289 115.154 42.292V45.0278H120.547V32.3649C120.547 27.9094 116.913 25.0173 111.949 25.0173ZM110.972 41.393C109.448 41.393 108.353 40.4941 108.353 39.2044C108.353 37.6802 109.526 36.664 111.167 36.664H115.154V36.9376C115.154 39.4389 113.63 41.393 110.972 41.393Z" fill="white"/>
<path d="M124.198 53.0007H129.631V43.269C130.686 44.5979 132.601 45.3404 134.829 45.3404C140.496 45.3404 144.326 41.3149 144.326 35.1789C144.326 29.0428 140.809 25.0173 135.298 25.0173C132.757 25.0173 130.803 25.9553 129.631 27.4795V25.3299H124.198V53.0007ZM134.164 40.6505C131.233 40.6505 129.318 38.4618 129.318 35.1789C129.318 31.8568 131.233 29.6681 134.164 29.6681C137.017 29.6681 138.972 31.8568 138.972 35.1789C138.972 38.4618 137.017 40.6505 134.164 40.6505Z" fill="white"/>
<path d="M153.892 45.3404C158.503 45.3404 161.552 42.8782 161.552 39.1262C161.552 30.2153 150.765 34.788 150.765 30.7625C150.765 29.5118 151.82 28.8474 153.344 28.8474C154.83 28.8474 156.354 29.7463 156.588 31.4269H161.317C161.122 27.5577 157.917 25.0173 153.188 25.0173C149.162 25.0173 146.153 27.4795 146.153 30.9579C146.153 39.2435 156.745 35.2961 156.745 39.3216C156.745 40.416 155.572 41.2367 153.892 41.2367C151.859 41.2367 150.491 40.1424 150.296 38.3837H145.606C145.801 42.6437 149.084 45.3404 153.892 45.3404Z" fill="white"/>
<path d="M183.009 25.3299H177.537V36.1168C177.537 38.6182 175.856 40.4941 173.472 40.4941C171.245 40.4941 169.681 38.7745 169.681 36.3904V25.3299H164.249V37.602C164.249 42.0965 167.141 45.3404 171.557 45.3404C174.254 45.3404 176.443 44.1679 177.537 42.292V45.0278H183.009V25.3299Z" fill="white"/>
<path d="M186.917 45.0278H192.35V16.7708H186.917V45.0278Z" fill="white"/>
<path d="M209.423 38.3446C208.993 40.0251 207.547 40.885 205.358 40.885C202.622 40.885 200.864 39.1653 200.473 36.3904H214.621C214.66 35.9605 214.699 35.3743 214.699 34.6317C214.699 30.1371 211.924 25.0173 204.967 25.0173C198.284 25.0173 195.236 30.1371 195.236 35.1398C195.236 40.1033 198.675 45.3404 205.358 45.3404C210.204 45.3404 213.956 42.6046 214.738 38.3446H209.423ZM204.967 29.0037C207.586 29.0037 209.11 30.7625 209.266 32.9511H200.551C201.02 30.2153 202.505 29.0037 204.967 29.0037Z" fill="white"/>
</svg>
