<svg width="76" height="76" viewBox="0 0 76 76" fill="none" xmlns="http://www.w3.org/2000/svg">
<g clip-path="url(#clip0_1_11288)">
<path d="M38.1881 75.6241C59.0711 75.6241 76.0001 58.695 76.0001 37.812C76.0001 16.929 59.0711 0 38.1881 0C17.3051 0 0.376076 16.929 0.376076 37.812C0.376076 58.695 17.3051 75.6241 38.1881 75.6241Z" fill="url(#paint0_linear_1_11288)"/>
<g filter="url(#filter0_f_1_11288)">
<path d="M5.41795 38.3156C7.4666 25.637 20.0146 1.80145 53.8174 7.88714C33.843 1.04083 9.25918 4.84422 5.41795 38.3156Z" fill="white"/>
</g>
<path d="M54.5 46.5L53.3253 52.0325C53.3269 52.4441 53.2431 52.8514 53.0793 53.2285C52.9154 53.6056 52.675 53.9441 52.3736 54.2223C52.0722 54.5006 51.7163 54.7124 51.3288 54.8442C50.9413 54.9761 50.5307 55.025 50.1233 54.988C45.597 54.4634 41.2559 52.8793 37.4477 50.3627C32.1859 47.2745 28.0391 42.5797 25.6092 36.9597C23.11 33.1326 21.5356 28.7703 21.0119 24.2216C20.9751 23.8117 21.0238 23.3986 21.1548 23.0088C21.2859 22.6189 21.4964 22.2609 21.773 21.9576C22.0495 21.6543 22.3859 21.4125 22.7607 21.2476C23.1355 21.0828 23.5404 20.9985 23.9495 21.0001H29.9568C30.6697 20.9931 31.3607 21.247 31.9012 21.7147C32.4416 22.1823 32.7947 22.8317 32.8944 23.5418C33.1882 25.5811 33.8785 27.5317 34.936 29.305C35.2417 29.8915 35.3426 30.5643 35.2228 31.2154C35.1029 31.8666 34.7692 32.4584 34.2751 32.8959L32.4097 34.7726C34.5121 38.5164 37.5894 41.6125 41.3106 43.7277L43.1759 41.851C43.6108 41.3538 44.199 41.0181 44.8462 40.8975C45.4934 40.7769 46.1621 40.8785 46.7451 41.186C48.5076 42.2499 50.4464 42.9445 52.4734 43.24C53.1817 43.3407 53.8292 43.698 54.2944 44.2449C54.7595 44.7917 54.5106 45.7803 54.5 46.5Z" stroke="white" stroke-width="3"/>
</g>
<defs>
<filter id="filter0_f_1_11288" x="-5.68205" y="-6.05898" width="70.5994" height="55.4744" filterUnits="userSpaceOnUse" color-interpolation-filters="sRGB">
<feFlood flood-opacity="0" result="BackgroundImageFix"/>
<feBlend mode="normal" in="SourceGraphic" in2="BackgroundImageFix" result="shape"/>
<feGaussianBlur stdDeviation="5.55" result="effect1_foregroundBlur_1_11288"/>
</filter>
<linearGradient id="paint0_linear_1_11288" x1="34.6589" y1="30.7538" x2="52.3046" y2="68.5658" gradientUnits="userSpaceOnUse">
<stop stop-color="#180058"/>
<stop offset="1" stop-color="#10003B"/>
</linearGradient>
<clipPath id="clip0_1_11288">
<rect width="76" height="76" rx="38" fill="white"/>
</clipPath>
</defs>
</svg>
