<svg width="1440" height="1091" viewBox="0 0 1440 1091" fill="none" xmlns="http://www.w3.org/2000/svg">
<g filter="url(#filter0_d_1_11243)">
<path d="M-298 1140.5C-298 870.377 -190.747 611.318 0.165253 420.312C191.077 229.306 450.009 122 720 122C989.99 122 1248.92 229.306 1439.83 420.312C1630.75 611.317 1738 870.377 1738 1140.5L759.529 1140.5C759.529 1130.01 755.364 1119.95 747.951 1112.54C740.538 1105.12 730.484 1100.95 720 1100.95C709.516 1100.95 699.462 1105.12 692.049 1112.54C684.636 1119.95 680.471 1130.01 680.471 1140.5L-298 1140.5Z" fill="#050409"/>
</g>
<defs>
<filter id="filter0_d_1_11243" x="-422" y="0" width="2284" height="1266.5" filterUnits="userSpaceOnUse" color-interpolation-filters="sRGB">
<feFlood flood-opacity="0" result="BackgroundImageFix"/>
<feColorMatrix in="SourceAlpha" type="matrix" values="0 0 0 0 0 0 0 0 0 0 0 0 0 0 0 0 0 0 127 0" result="hardAlpha"/>
<feOffset dy="2"/>
<feGaussianBlur stdDeviation="62"/>
<feComposite in2="hardAlpha" operator="out"/>
<feColorMatrix type="matrix" values="0 0 0 0 0.499608 0 0 0 0 0.34902 0 0 0 0 0.913725 0 0 0 1 0"/>
<feBlend mode="normal" in2="BackgroundImageFix" result="effect1_dropShadow_1_11243"/>
<feBlend mode="normal" in="SourceGraphic" in2="effect1_dropShadow_1_11243" result="shape"/>
</filter>
</defs>
</svg>
