<svg width="20" height="21" viewBox="0 0 20 21" fill="none" xmlns="http://www.w3.org/2000/svg">
<path d="M16.1708 5.42723C15.0028 4.89249 13.7697 4.51312 12.5031 4.29883C12.3298 4.60867 12.173 4.92745 12.0333 5.25384C10.6841 5.05054 9.31207 5.05054 7.96289 5.25384C7.82315 4.92748 7.66632 4.6087 7.49307 4.29883C6.22565 4.51493 4.99177 4.8952 3.82258 5.43002C1.50144 8.86416 0.872209 12.213 1.18682 15.5143C2.54614 16.5186 4.06761 17.2824 5.68509 17.7725C6.0493 17.2827 6.37158 16.763 6.64851 16.219C6.12252 16.0226 5.61485 15.7802 5.13137 15.4947C5.25862 15.4025 5.38306 15.3074 5.50332 15.2151C6.91012 15.8767 8.44558 16.2197 10.0002 16.2197C11.5548 16.2197 13.0903 15.8767 14.4971 15.2151C14.6187 15.3144 14.7432 15.4094 14.869 15.4947C14.3846 15.7807 13.876 16.0235 13.3491 16.2204C13.6257 16.7642 13.948 17.2834 14.3125 17.7725C15.9313 17.2844 17.454 16.521 18.8136 15.5157C19.1827 11.6873 18.1829 8.36918 16.1708 5.42723ZM7.04702 13.484C6.1703 13.484 5.44599 12.6884 5.44599 11.7096C5.44599 10.7308 6.14513 9.92824 7.04422 9.92824C7.94332 9.92824 8.66203 10.7308 8.64665 11.7096C8.63127 12.6884 7.94052 13.484 7.04702 13.484ZM12.9534 13.484C12.0752 13.484 11.3537 12.6884 11.3537 11.7096C11.3537 10.7308 12.0529 9.92824 12.9534 9.92824C13.8538 9.92824 14.567 10.7308 14.5516 11.7096C14.5362 12.6884 13.8469 13.484 12.9534 13.484Z" fill="white"/>
</svg>
