<svg width="32" height="32" viewBox="0 0 32 32" fill="none" xmlns="http://www.w3.org/2000/svg">
<rect width="32" height="32" fill="#1B1A1F"/>
<rect x="5" y="5" width="22" height="22" rx="11" fill="#7D52F4"/>
<path d="M19.6293 12.6628C19.2661 11.6715 18.5961 10.8219 17.7168 10.2377C17.6598 10.1991 17.601 10.1606 17.5331 10.1238C17.4651 10.0871 17.3953 10.0411 17.3255 10.0044L17.1932 9.93641L17.0775 9.87028C16.4196 9.56 15.7012 9.39938 14.9739 9.39996H14.8821C13.7331 9.42185 12.6276 9.843 11.7554 10.5911C10.8831 11.3392 10.2985 12.3676 10.1018 13.4998C9.90515 14.632 10.1087 15.7973 10.6776 16.7958C11.2465 17.7942 12.1452 18.5635 13.2194 18.9716C13.258 18.9863 13.2966 19.001 13.3352 19.012V12.7124H19.6495L19.6293 12.6628Z" fill="white"/>
<path d="M16.9195 22.6018H18.2349V19.012H13.3315C13.3313 19.4834 13.4239 19.9501 13.6041 20.3856C13.7843 20.8212 14.0486 21.2169 14.3818 21.5503C14.715 21.8837 15.1106 22.1481 15.546 22.3285C15.9815 22.509 16.4482 22.6018 16.9195 22.6018Z" fill="white"/>
<path d="M18.2349 15.4241V19.012H18.3837C18.855 19.0123 19.3218 18.9197 19.7573 18.7395C20.1928 18.5593 20.5886 18.295 20.9219 17.9618C21.2553 17.6286 21.5198 17.233 21.7002 16.7976C21.8806 16.3621 21.9735 15.8954 21.9735 15.4241H18.2349Z" fill="white"/>
</svg>
