<svg width="1440" height="261" viewBox="0 0 1440 261" fill="none" xmlns="http://www.w3.org/2000/svg">
<path d="M227.96 85.9048C219.336 62.3673 203.427 42.1952 182.548 28.3227C181.196 27.4066 179.8 26.4905 178.186 25.6181C176.572 24.7456 174.914 23.6551 173.257 22.7826L170.116 21.1685L167.368 19.5981C151.748 12.2308 134.69 8.41688 117.42 8.43072H115.239C87.9576 8.95045 61.7084 18.9503 40.9968 36.714C20.2852 54.4777 6.40315 78.897 1.73341 105.78C-2.93634 132.664 1.89761 160.334 15.4055 184.042C28.9133 207.75 50.2525 226.016 75.76 235.705C76.6761 236.054 77.5922 236.403 78.5083 236.665V87.0825H228.44L227.96 85.9048Z" fill="white"/>
<path d="M163.619 321.903H194.853V236.664H78.4239C78.4182 247.856 80.6176 258.939 84.8965 269.28C89.1754 279.622 95.4499 289.019 103.362 296.934C111.273 304.85 120.667 311.129 131.006 315.414C141.346 319.698 152.428 321.903 163.619 321.903Z" fill="white"/>
<path d="M194.849 151.469V236.664H198.383C209.574 236.67 220.657 234.47 230.999 230.191C241.34 225.913 250.737 219.638 258.653 211.726C266.569 203.815 272.848 194.421 277.132 184.082C281.416 173.742 283.622 162.661 283.622 151.469H194.849Z" fill="white"/>
<path d="M526.638 91.3362C524.616 84.7862 521.826 78.9236 518.268 73.7483C514.791 68.4921 510.586 64.0041 505.653 60.2843C500.802 56.5646 495.222 53.7748 488.914 51.9149C482.607 49.9741 475.734 49.0038 468.294 49.0038C454.951 49.0038 443.064 52.3596 432.633 59.0714C422.201 65.7831 413.994 75.6485 408.01 88.6677C402.107 101.606 399.155 117.375 399.155 135.973C399.155 154.734 402.107 170.624 408.01 183.643C413.913 196.662 422.121 206.568 432.633 213.36C443.145 220.072 455.356 223.428 469.264 223.428C481.879 223.428 492.796 221.002 502.014 216.15C511.314 211.298 518.47 204.425 523.484 195.53C528.498 186.554 531.004 176.042 531.004 163.993L541.193 165.57H473.752V130.394H574.55V160.233C574.55 181.5 570.021 199.897 560.965 215.422C551.908 230.948 539.455 242.916 523.605 251.326C507.756 259.655 489.561 263.82 469.022 263.82C446.137 263.82 426.042 258.685 408.737 248.415C391.513 238.064 378.049 223.388 368.346 204.385C358.723 185.301 353.912 162.659 353.912 136.458C353.912 116.404 356.742 98.4927 362.402 82.7242C368.144 66.9556 376.149 53.5726 386.419 42.5751C396.689 31.4966 408.737 23.0868 422.565 17.3454C436.393 11.5232 451.434 8.61205 467.688 8.61205C481.435 8.61205 494.251 10.6337 506.139 14.6769C518.026 18.6392 528.578 24.2997 537.797 31.6584C547.096 39.017 554.738 47.7504 560.722 57.8584C566.706 67.9664 570.628 79.1257 572.488 91.3362H526.638Z" fill="white"/>
<path d="M616.124 260.423V74.1121H658.699V105.164H660.64C664.036 94.4091 669.858 86.1205 678.107 80.2983C686.436 74.3952 695.937 71.4436 706.611 71.4436C709.037 71.4436 711.746 71.5649 714.738 71.8075C717.811 71.9692 720.358 72.2523 722.38 72.6566V113.048C720.52 112.401 717.568 111.835 713.525 111.35C709.563 110.784 705.722 110.501 702.002 110.501C693.997 110.501 686.799 112.24 680.411 115.717C674.104 119.113 669.131 123.844 665.492 129.908C661.853 135.973 660.033 142.968 660.033 150.893V260.423H616.124Z" fill="white"/>
<path d="M751.552 260.423V74.1121H795.461V260.423H751.552ZM773.628 47.6695C766.673 47.6695 760.689 45.3649 755.676 40.7556C750.662 36.0655 748.155 30.4454 748.155 23.8954C748.155 17.2645 750.662 11.6445 755.676 7.03518C760.689 2.34506 766.673 0 773.628 0C780.663 0 786.647 2.34506 791.579 7.03518C796.593 11.6445 799.1 17.2645 799.1 23.8954C799.1 30.4454 796.593 36.0655 791.579 40.7556C786.647 45.3649 780.663 47.6695 773.628 47.6695Z" fill="white"/>
<path d="M909.753 263.698C895.116 263.698 882.016 259.938 870.452 252.418C858.889 244.898 849.751 233.981 843.039 219.668C836.328 205.355 832.972 187.969 832.972 167.51C832.972 146.809 836.368 129.342 843.161 115.11C850.034 100.797 859.293 90.002 870.938 82.7242C882.582 75.3655 895.561 71.6862 909.874 71.6862C920.79 71.6862 929.766 73.5461 936.802 77.2658C943.837 80.9047 949.416 85.3118 953.541 90.4872C957.665 95.5816 960.859 100.393 963.123 104.921H964.942V12.0083H1008.97V260.423H965.791V231.07H963.123C960.859 235.598 957.584 240.41 953.298 245.504C949.012 250.518 943.352 254.803 936.316 258.361C929.281 261.919 920.427 263.698 909.753 263.698ZM922.003 227.673C931.303 227.673 939.227 225.167 945.778 220.153C952.328 215.059 957.301 207.983 960.697 198.926C964.093 189.869 965.791 179.317 965.791 167.268C965.791 155.219 964.093 144.747 960.697 135.852C957.382 126.957 952.449 120.043 945.899 115.11C939.43 110.178 931.465 107.711 922.003 107.711C912.219 107.711 904.052 110.258 897.502 115.353C890.952 120.447 886.019 127.483 882.703 136.458C879.388 145.434 877.73 155.704 877.73 167.268C877.73 178.912 879.388 189.303 882.703 198.441C886.1 207.498 891.073 214.654 897.623 219.91C904.254 225.086 912.381 227.673 922.003 227.673Z" fill="white"/>
<path d="M1055.76 260.423V74.1121H1099.67V260.423H1055.76ZM1077.84 47.6695C1070.88 47.6695 1064.9 45.3649 1059.89 40.7556C1054.87 36.0655 1052.37 30.4454 1052.37 23.8954C1052.37 17.2645 1054.87 11.6445 1059.89 7.03518C1064.9 2.34506 1070.88 0 1077.84 0C1084.87 0 1090.86 2.34506 1095.79 7.03518C1100.8 11.6445 1103.31 17.2645 1103.31 23.8954C1103.31 30.4454 1100.8 36.0655 1095.79 40.7556C1090.86 45.3649 1084.87 47.6695 1077.84 47.6695Z" fill="white"/>
<path d="M1239.19 74.1121V108.075H1129.06V74.1121H1239.19ZM1156.59 260.423V56.5241C1156.59 43.9902 1159.18 33.5587 1164.35 25.2297C1169.61 16.9006 1176.65 10.6741 1185.46 6.55C1194.27 2.42592 1204.06 0.36388 1214.81 0.36388C1222.41 0.36388 1229.17 0.970367 1235.07 2.18334C1240.97 3.3963 1245.34 4.48797 1248.17 5.45834L1239.44 39.4213C1237.58 38.8553 1235.23 38.2892 1232.4 37.7232C1229.57 37.0763 1226.42 36.7528 1222.94 36.7528C1214.77 36.7528 1208.99 38.734 1205.59 42.6964C1202.28 46.5778 1200.62 52.1575 1200.62 59.4353V260.423H1156.59Z" fill="white"/>
<path d="M1300.87 330.29C1294.89 330.29 1289.35 329.805 1284.26 328.835C1279.24 327.945 1275.24 326.894 1272.25 325.681L1282.44 291.475C1288.82 293.335 1294.53 294.225 1299.54 294.144C1304.55 294.063 1308.96 292.486 1312.76 289.413C1316.64 286.421 1319.92 281.408 1322.59 274.373L1326.35 264.305L1258.78 74.1121H1305.36L1348.3 214.816H1350.24L1393.3 74.1121H1440L1365.4 282.985C1361.93 292.85 1357.32 301.3 1351.57 308.336C1345.83 315.452 1338.8 320.87 1330.47 324.589C1322.22 328.39 1312.36 330.29 1300.87 330.29Z" fill="white"/>
</svg>
