<svg width="64" height="64" viewBox="0 0 64 64" fill="none" xmlns="http://www.w3.org/2000/svg">
<path d="M10.0026 4.86499C9.37246 5.53559 9 6.57632 9 7.92404V56.0762C9 57.4261 9.37246 58.4646 10.0026 59.1352L10.1628 59.292L36.9907 32.318V32.0001V31.6822L10.1628 4.70606L10.0026 4.86499Z" fill="url(#paint0_linear_1_11792)"/>
<path d="M45.9319 41.3115L36.9907 32.3173V31.9994V31.6815L45.934 22.6895L46.1354 22.8048L56.731 28.8576C59.7561 30.5864 59.7561 33.4146 56.731 35.1455L46.1354 41.1983L45.9319 41.3115Z" fill="url(#paint1_linear_1_11792)"/>
<g filter="url(#filter0_i_1_11792)">
<path d="M46.1352 41.1957L36.9883 31.999L10.0024 59.1341C10.9986 60.1966 12.6465 60.3273 14.5023 59.2691L46.1352 41.1957Z" fill="url(#paint2_linear_1_11792)"/>
</g>
<defs>
<filter id="filter0_i_1_11792" x="10.0024" y="31.999" width="36.1328" height="28.001" filterUnits="userSpaceOnUse" color-interpolation-filters="sRGB">
<feFlood flood-opacity="0" result="BackgroundImageFix"/>
<feBlend mode="normal" in="SourceGraphic" in2="BackgroundImageFix" result="shape"/>
<feColorMatrix in="SourceAlpha" type="matrix" values="0 0 0 0 0 0 0 0 0 0 0 0 0 0 0 0 0 0 127 0" result="hardAlpha"/>
<feOffset dy="-0.15"/>
<feComposite in2="hardAlpha" operator="arithmetic" k2="-1" k3="1"/>
<feColorMatrix type="matrix" values="0 0 0 0 0 0 0 0 0 0 0 0 0 0 0 0 0 0 0.08 0"/>
<feBlend mode="normal" in2="shape" result="effect1_innerShadow_1_11792"/>
</filter>
<linearGradient id="paint0_linear_1_11792" x1="34.6126" y1="7.41456" x2="-1.92557" y2="43.7547" gradientUnits="userSpaceOnUse">
<stop stop-color="#FF006F"/>
<stop offset="0.0066" stop-color="#FF006F"/>
<stop offset="0.2601" stop-color="#FF006F"/>
<stop offset="0.5122" stop-color="#FF006F"/>
<stop offset="0.7604" stop-color="#FF006F"/>
<stop offset="1" stop-color="#FF006F"/>
</linearGradient>
<linearGradient id="paint1_linear_1_11792" x1="60.6689" y1="31.9994" x2="8.27378" y2="31.9994" gradientUnits="userSpaceOnUse">
<stop stop-color="#4400FF"/>
<stop offset="0.4087" stop-color="#4400FF"/>
<stop offset="0.7754" stop-color="#4400FF"/>
<stop offset="1" stop-color="#4400FF"/>
</linearGradient>
<linearGradient id="paint2_linear_1_11792" x1="41.1679" y1="36.9934" x2="-8.38241" y2="86.2752" gradientUnits="userSpaceOnUse">
<stop stop-color="#DBFF3A"/>
<stop offset="1" stop-color="#C31162"/>
</linearGradient>
</defs>
</svg>
