<svg width="90" height="90" viewBox="0 0 90 90" fill="none" xmlns="http://www.w3.org/2000/svg">
<g clip-path="url(#clip0_173983_1778)">
<path d="M45.2228 89.5548C69.9527 89.5548 90.0002 69.5073 90.0002 44.7774C90.0002 20.0475 69.9527 0 45.2228 0C20.4929 0 0.445374 20.0475 0.445374 44.7774C0.445374 69.5073 20.4929 89.5548 45.2228 89.5548Z" fill="url(#paint0_linear_173983_1778)"/>
<g filter="url(#filter0_f_173983_1778)">
<path d="M6.41602 45.3739C8.84206 30.3598 23.7015 2.1334 63.7311 9.34014C40.0773 1.23266 10.9648 5.73667 6.41602 45.3739Z" fill="white"/>
</g>
<path d="M53.0249 43.2886C52.6263 43.689 52.3211 44.1722 52.131 44.7037C51.9408 45.2353 51.8515 45.7833 51.9059 46.3452C51.9619 47.0066 51.8725 47.6721 51.6441 48.2955C51.4158 48.9188 51.054 49.4849 50.584 49.9543C50.1139 50.4235 49.5469 50.7848 48.9225 51.0127C48.2983 51.2406 47.6316 51.3299 46.9692 51.274C46.1769 51.2004 45.4 51.3914 44.7091 51.7859C44.0184 52.1804 43.4662 52.778 43.1281 53.4973C42.79 54.2165 42.6822 55.0223 42.8195 55.805C42.957 56.5876 43.3328 57.3089 43.8957 57.8704C44.4587 58.432 45.1814 58.8065 45.9654 58.9429C46.7494 59.0794 47.5564 58.9711 48.2765 58.6328C48.9966 58.2945 49.5946 57.7428 49.9891 57.0528C50.3836 56.3627 50.5553 55.568 50.4809 54.7769C50.4249 54.1156 50.5342 53.4689 50.7625 52.8455C50.9908 52.2222 51.3527 51.6561 51.8227 51.1868C52.2928 50.7175 52.8598 50.3562 53.4841 50.1284C54.1085 49.9004 54.7551 49.7922 55.4175 49.8481C56.0648 49.9062 56.7163 49.8002 57.3117 49.54C57.9069 49.2798 58.4269 48.8738 58.8232 48.3596C59.2194 47.8454 59.4794 47.2395 59.5787 46.5984C59.6781 45.9571 59.6137 45.3013 59.3916 44.6914C59.1695 44.0817 58.7968 43.5377 58.308 43.1101C57.8193 42.6824 57.2304 42.3848 56.5958 42.245C55.9612 42.1051 55.3014 42.1273 54.6778 42.3097C54.0541 42.4922 53.4867 42.8289 53.0281 43.2886H53.0249Z" fill="white"/>
<path d="M45.2657 48.8169C45.8286 48.8735 46.3772 48.7856 46.9103 48.596C47.4433 48.4063 47.9275 48.1009 48.3278 47.7015C48.728 47.3022 49.0344 46.819 49.2247 46.2869C49.415 45.7549 49.4846 45.1874 49.4283 44.6252C49.3723 43.9638 49.4817 43.3172 49.7099 42.6938C49.9383 42.0705 50.3001 41.5044 50.7702 41.035C51.2403 40.5658 51.8072 40.2045 52.4315 39.9766C53.0559 39.7486 53.7225 39.6594 54.385 39.7152C55.1774 39.7896 55.9535 39.5991 56.6446 39.205C57.3359 38.811 57.8885 38.2137 58.2271 37.4945C58.5658 36.7754 58.674 35.9695 58.5371 35.1867C58.4001 34.4039 58.0247 33.6823 57.4618 33.1204C56.8991 32.5585 56.1763 32.1836 55.3923 32.0469C54.6082 31.9101 53.8011 32.0182 53.0807 32.3563C52.3604 32.6944 51.7622 33.2462 51.3675 33.9363C50.9728 34.6263 50.782 35.4012 50.8565 36.1924C50.9126 36.8538 50.8234 37.5195 50.5952 38.1429C50.3669 38.7663 50.005 39.3325 49.535 39.8019C49.0649 40.2711 48.4978 40.6324 47.8735 40.8603C47.249 41.0882 46.6012 41.1971 45.9387 41.1412C45.3758 41.0846 44.8071 41.1536 44.2741 41.3432C43.7411 41.5327 43.2569 41.8383 42.8566 42.2376C42.4563 42.6369 42.15 43.1202 41.9596 43.6522C41.7694 44.1843 41.6809 44.7329 41.7372 45.2951C41.7929 45.9564 41.7034 46.6219 41.4751 47.2452C41.2467 47.8684 40.8849 48.4345 40.4149 48.9037C39.9448 49.373 39.3779 49.7342 38.7537 49.9623C38.1294 50.1902 37.4629 50.2796 36.8005 50.2239C36.0081 50.1496 35.2309 50.3401 34.5397 50.7341C33.8485 51.1282 33.2959 51.7255 32.9572 52.4446C32.6186 53.1638 32.5103 53.9697 32.6473 54.7525C32.7843 55.5353 33.1598 56.2569 33.7226 56.8187C34.2854 57.3807 35.0081 57.7556 35.7921 57.8923C36.5762 58.029 37.3834 57.9209 38.1037 57.5828C38.8239 57.2447 39.4222 56.693 39.8169 56.003C40.2116 55.3128 40.4034 54.5369 40.329 53.7457C40.273 53.0843 40.3624 52.4188 40.5907 51.7954C40.819 51.1721 41.1808 50.606 41.6508 50.1367C42.121 49.6674 42.6879 49.3061 43.3122 49.0782C43.9366 48.8503 44.6032 48.761 45.2657 48.8169Z" fill="white"/>
<path d="M38.2181 46.7094C38.6167 46.3092 38.9219 45.8259 39.1119 45.2943C39.3018 44.7627 39.3919 44.2146 39.3371 43.6528C39.2811 42.9913 39.3705 42.3255 39.5989 41.702C39.8274 41.0785 40.1894 40.5123 40.6597 40.0429C41.13 39.5736 41.6972 39.2124 42.3218 38.9846C42.9464 38.7568 43.6133 38.6678 44.2759 38.724C45.068 38.7981 45.8439 38.6075 46.5347 38.2135C47.2256 37.8195 47.7778 37.2223 48.1164 36.5034C48.4548 35.7845 48.5629 34.9789 48.426 34.1963C48.2891 33.4138 47.9136 32.6926 47.3511 32.1308C46.7885 31.5691 46.066 31.1944 45.2823 31.0576C44.4985 30.9209 43.6916 31.0289 42.9716 31.3668C42.2515 31.7047 41.6534 32.2561 41.2588 32.9459C40.8641 33.6357 40.6732 34.4113 40.7474 35.2022C40.8034 35.8635 40.714 36.5291 40.4857 37.1525C40.2573 37.7758 39.8956 38.3419 39.4255 38.8112C38.9554 39.2805 38.3885 39.6418 37.7641 39.8697C37.1398 40.0976 36.4921 40.2058 35.8297 40.1499C35.1824 40.0919 34.531 40.1981 33.9357 40.4584C33.3405 40.7187 32.8207 41.1249 32.4245 41.6392C32.0283 42.1534 31.7686 42.7592 31.6693 43.4004C31.5701 44.0416 31.6345 44.6975 31.8567 45.3071C32.0789 45.9169 32.4517 46.4607 32.9404 46.8883C33.4292 47.3159 34.0181 47.6134 34.6527 47.7533C35.2873 47.893 35.9469 47.8707 36.5706 47.6883C37.1942 47.5058 37.7616 47.1691 38.2202 46.7094H38.2181Z" fill="white"/>
</g>
<defs>
<filter id="filter0_f_173983_1778" x="-4.68398" y="-5.13027" width="79.5151" height="61.6043" filterUnits="userSpaceOnUse" color-interpolation-filters="sRGB">
<feFlood flood-opacity="0" result="BackgroundImageFix"/>
<feBlend mode="normal" in="SourceGraphic" in2="BackgroundImageFix" result="shape"/>
<feGaussianBlur stdDeviation="5.55" result="effect1_foregroundBlur_173983_1778"/>
</filter>
<linearGradient id="paint0_linear_173983_1778" x1="41.0435" y1="36.4189" x2="61.9397" y2="81.1963" gradientUnits="userSpaceOnUse">
<stop stop-color="#8D64FD"/>
<stop offset="1" stop-color="#45269C"/>
</linearGradient>
<clipPath id="clip0_173983_1778">
<rect width="90" height="90" fill="white"/>
</clipPath>
</defs>
</svg>
