<svg width="90" height="90" viewBox="0 0 90 90" fill="none" xmlns="http://www.w3.org/2000/svg">
<g clip-path="url(#clip0_173983_1748)">
<path d="M45.2228 89.5548C69.9527 89.5548 90.0002 69.5073 90.0002 44.7774C90.0002 20.0475 69.9527 0 45.2228 0C20.4929 0 0.445374 20.0475 0.445374 44.7774C0.445374 69.5073 20.4929 89.5548 45.2228 89.5548Z" fill="url(#paint0_linear_173983_1748)"/>
<g filter="url(#filter0_f_173983_1748)">
<path d="M6.41602 45.3739C8.84206 30.3598 23.7015 2.1334 63.7311 9.34014C40.0773 1.23266 10.9648 5.73667 6.41602 45.3739Z" fill="white"/>
</g>
<path d="M49.5273 30.2645L46.4578 29.4448L43.8712 39.0656L41.5359 30.3799L38.4664 31.1996L40.9895 40.5838L34.705 34.3207L32.458 36.5601L39.3513 43.43L30.7668 41.1376L29.9443 44.1966L39.324 46.7013C39.2166 46.2397 39.1598 45.7588 39.1598 45.2646C39.1598 41.7664 42.0053 38.9306 45.5153 38.9306C49.0254 38.9306 51.8708 41.7664 51.8708 45.2646C51.8708 45.7556 51.8147 46.2336 51.7086 46.6925L60.233 48.9688L61.0554 45.9098L51.6385 43.3951L60.2236 41.1025L59.4011 38.0435L49.9845 40.5581L56.269 34.295L54.022 32.0556L47.2243 38.8302L49.5273 30.2645Z" fill="white"/>
<path d="M51.7003 46.7283C51.4372 47.8371 50.8816 48.8332 50.1193 49.6313L56.2948 55.7859L58.5418 53.5466L51.7003 46.7283Z" fill="white"/>
<path d="M50.0569 49.6955C49.2854 50.4808 48.3104 51.0669 47.217 51.3689L49.4642 59.7269L52.5336 58.9072L50.0569 49.6955Z" fill="white"/>
<path d="M47.1024 51.3995C46.5951 51.5294 46.0634 51.5985 45.5155 51.5985C44.9285 51.5985 44.36 51.5192 43.8203 51.3707L41.5711 59.7363L44.6406 60.5559L47.1024 51.3995Z" fill="white"/>
<path d="M43.7118 51.3401C42.6351 51.0231 41.6774 50.4295 40.9217 49.642L34.7309 55.8117L36.9779 58.0511L43.7118 51.3401Z" fill="white"/>
<path d="M40.8699 49.5874C40.127 48.7949 39.586 47.8121 39.3284 46.7204L30.7762 49.0042L31.5987 52.0632L40.8699 49.5874Z" fill="white"/>
</g>
<defs>
<filter id="filter0_f_173983_1748" x="-4.68398" y="-5.13027" width="79.5151" height="61.6043" filterUnits="userSpaceOnUse" color-interpolation-filters="sRGB">
<feFlood flood-opacity="0" result="BackgroundImageFix"/>
<feBlend mode="normal" in="SourceGraphic" in2="BackgroundImageFix" result="shape"/>
<feGaussianBlur stdDeviation="5.55" result="effect1_foregroundBlur_173983_1748"/>
</filter>
<linearGradient id="paint0_linear_173983_1748" x1="41.0435" y1="36.4189" x2="61.9397" y2="81.1963" gradientUnits="userSpaceOnUse">
<stop stop-color="#8D64FD"/>
<stop offset="1" stop-color="#45269C"/>
</linearGradient>
<clipPath id="clip0_173983_1748">
<rect width="90" height="90" fill="white"/>
</clipPath>
</defs>
</svg>
