<svg width="90" height="90" viewBox="0 0 90 90" fill="none" xmlns="http://www.w3.org/2000/svg">
<g clip-path="url(#clip0_173983_1766)">
<path d="M45.2228 89.5548C69.9527 89.5548 90.0002 69.5073 90.0002 44.7774C90.0002 20.0475 69.9527 0 45.2228 0C20.4929 0 0.445374 20.0475 0.445374 44.7774C0.445374 69.5073 20.4929 89.5548 45.2228 89.5548Z" fill="url(#paint0_linear_173983_1766)"/>
<g filter="url(#filter0_f_173983_1766)">
<path d="M6.41602 45.3739C8.84206 30.3598 23.7015 2.1334 63.7311 9.34014C40.0773 1.23266 10.9648 5.73667 6.41602 45.3739Z" fill="white"/>
</g>
<path d="M41.0484 50.3194C40.6791 50.3194 40.334 50.5028 40.1274 50.8089L37.7933 54.2675C37.2953 55.0055 37.8241 56.0002 38.7143 56.0002H50.1353C50.5045 56.0002 50.8497 55.8167 51.0563 55.5106L59.4547 43.0662C59.9527 42.3282 59.424 41.3335 58.5337 41.3335H50.8066C50.4373 41.3335 50.0922 41.517 49.8856 41.823L44.9776 49.0955C44.4611 49.8607 43.5983 50.3194 42.6751 50.3194H41.0484Z" fill="url(#paint1_linear_173983_1766)" fill-opacity="0.48"/>
<path d="M39.2906 35.0303C39.6984 34.3886 40.4059 34 41.1661 34H50.6013C51.4778 34 52.0092 34.9674 51.5391 35.7071L43.9575 47.6364C43.5497 48.278 42.8422 48.6667 42.082 48.6667H32.6467C31.7702 48.6667 31.2388 47.6993 31.709 46.9596L39.2906 35.0303Z" fill="url(#paint2_linear_173983_1766)"/>
<path opacity="0.72" d="M41.0484 50.3194C40.6791 50.3194 40.334 50.5028 40.1274 50.8089L37.7933 54.2675C37.2953 55.0055 37.824 56.0002 38.7143 56.0002H50.1352C50.5045 56.0002 50.8496 55.8167 51.0562 55.5106L59.4547 43.0662C59.9527 42.3282 59.424 41.3335 58.5337 41.3335H50.8066C50.4373 41.3335 50.0921 41.517 49.8856 41.823L44.9776 49.0955C44.4611 49.8607 43.5982 50.3194 42.6751 50.3194H41.0484Z" fill="white"/>
<path d="M39.2906 35.0303C39.6984 34.3886 40.4059 34 41.1661 34H50.6014C51.4778 34 52.0092 34.9674 51.5391 35.7071L43.9575 47.6364C43.5497 48.278 42.8422 48.6667 42.082 48.6667H32.6467C31.7702 48.6667 31.2388 47.6993 31.709 46.9596L39.2906 35.0303Z" fill="white"/>
</g>
<defs>
<filter id="filter0_f_173983_1766" x="-4.68398" y="-5.13027" width="79.5151" height="61.6043" filterUnits="userSpaceOnUse" color-interpolation-filters="sRGB">
<feFlood flood-opacity="0" result="BackgroundImageFix"/>
<feBlend mode="normal" in="SourceGraphic" in2="BackgroundImageFix" result="shape"/>
<feGaussianBlur stdDeviation="5.55" result="effect1_foregroundBlur_173983_1766"/>
</filter>
<linearGradient id="paint0_linear_173983_1766" x1="41.0435" y1="36.4189" x2="61.9397" y2="81.1963" gradientUnits="userSpaceOnUse">
<stop stop-color="#8D64FD"/>
<stop offset="1" stop-color="#45269C"/>
</linearGradient>
<linearGradient id="paint1_linear_173983_1766" x1="48.624" y1="41.3335" x2="48.624" y2="63.5734" gradientUnits="userSpaceOnUse">
<stop offset="0.313079" stop-color="white"/>
<stop offset="1" stop-color="white" stop-opacity="0"/>
</linearGradient>
<linearGradient id="paint2_linear_173983_1766" x1="41.624" y1="34" x2="41.624" y2="53.3944" gradientUnits="userSpaceOnUse">
<stop offset="0.38239" stop-color="white"/>
<stop offset="1" stop-color="white" stop-opacity="0"/>
</linearGradient>
<clipPath id="clip0_173983_1766">
<rect width="90" height="90" fill="white"/>
</clipPath>
</defs>
</svg>
