<svg width="90" height="90" viewBox="0 0 90 90" fill="none" xmlns="http://www.w3.org/2000/svg">
<g clip-path="url(#clip0_173983_1760)">
<path d="M45.2228 89.5548C69.9527 89.5548 90.0002 69.5073 90.0002 44.7774C90.0002 20.0475 69.9527 0 45.2228 0C20.4929 0 0.445374 20.0475 0.445374 44.7774C0.445374 69.5073 20.4929 89.5548 45.2228 89.5548Z" fill="url(#paint0_linear_173983_1760)"/>
<g filter="url(#filter0_f_173983_1760)">
<path d="M6.41602 45.3739C8.84206 30.3598 23.7015 2.1334 63.7311 9.34014C40.0773 1.23266 10.9648 5.73667 6.41602 45.3739Z" fill="white"/>
</g>
<g clip-path="url(#clip1_173983_1760)">
<path opacity="0.64" d="M25 61C31.6274 61 37 55.6274 37 49C37 42.3726 31.6274 37 25 37V45.3999C26.9882 45.3999 28.6 47.0117 28.6 49C28.6 50.9882 26.9882 52.6 25 52.6V61Z" fill="white"/>
<path d="M65 41.0006C62.9494 40.351 60.7657 40.0005 58.4999 40.0005C46.6258 40.0005 37 49.6265 37 61.5005C37 62.6923 37.097 63.8615 37.2834 65.0005H50.6421C50.1652 63.9314 49.9001 62.7469 49.9001 61.5005C49.9001 56.7509 53.7503 52.9005 58.4999 52.9005C61.0959 52.9005 63.4231 54.0506 65 55.8692V41.0006Z" fill="white"/>
<path opacity="0.8" d="M27.1099 25.0005C28.1047 34.0004 35.7349 41.0005 45 41.0005C54.265 41.0005 61.8953 34.0004 62.8901 25.0005H50.0175C49.2228 26.9927 47.2757 28.4005 45 28.4005C42.7242 28.4005 40.7773 26.9927 39.9825 25.0005H27.1099Z" fill="white"/>
</g>
</g>
<defs>
<filter id="filter0_f_173983_1760" x="-4.68398" y="-5.13027" width="79.5151" height="61.6043" filterUnits="userSpaceOnUse" color-interpolation-filters="sRGB">
<feFlood flood-opacity="0" result="BackgroundImageFix"/>
<feBlend mode="normal" in="SourceGraphic" in2="BackgroundImageFix" result="shape"/>
<feGaussianBlur stdDeviation="5.55" result="effect1_foregroundBlur_173983_1760"/>
</filter>
<linearGradient id="paint0_linear_173983_1760" x1="41.0435" y1="36.4189" x2="61.9397" y2="81.1963" gradientUnits="userSpaceOnUse">
<stop stop-color="#8D64FD"/>
<stop offset="1" stop-color="#45269C"/>
</linearGradient>
<clipPath id="clip0_173983_1760">
<rect width="90" height="90" fill="white"/>
</clipPath>
<clipPath id="clip1_173983_1760">
<path d="M25 45C25 33.9543 33.9543 25 45 25C56.0457 25 65 33.9543 65 45C65 56.0457 56.0457 65 45 65C33.9543 65 25 56.0457 25 45Z" fill="white"/>
</clipPath>
</defs>
</svg>
