<svg width="90" height="100" viewBox="0 0 90 100" fill="none" xmlns="http://www.w3.org/2000/svg">
<path d="M72.337 24.7147C69.6005 17.2062 64.5523 10.7711 57.9269 6.34568C57.4978 6.05344 57.0548 5.76122 56.5427 5.4829C56.0305 5.20458 55.5045 4.85669 54.9784 4.57837L53.9818 4.06344L53.1097 3.56249C48.1532 1.21226 42.7402 -0.00440038 37.26 1.19584e-05H36.5679C27.911 0.165809 19.5815 3.35584 13.0093 9.02257C6.43697 14.6893 2.03187 22.4792 0.550051 31.0552C-0.93177 39.6311 0.602156 48.4582 4.88851 56.0211C9.17487 63.584 15.9463 69.4111 24.0404 72.5021C24.3311 72.6134 24.6218 72.7247 24.9125 72.8082V25.0905H72.4893L72.337 24.7147Z" fill="white"/>
<path d="M51.92 100H61.8312V72.8083H24.8855C24.8836 76.3785 25.5816 79.9141 26.9394 83.2131C28.2972 86.512 30.2882 89.5097 32.7988 92.0349C35.3093 94.5601 38.2902 96.5632 41.5711 97.9299C44.852 99.2966 48.3686 100 51.92 100Z" fill="white"/>
<path d="M61.8304 45.6304L61.8312 72.8083L62.9516 72.8082C66.503 72.8101 70.0199 72.1084 73.3015 70.7434C76.5831 69.3784 79.565 67.3768 82.0769 64.853C84.5887 62.3291 86.5813 59.3324 87.9408 56.0341C89.3002 52.7359 90 49.2006 90 45.6304H61.8304Z" fill="white"/>
</svg>
