<svg width="20" height="21" viewBox="0 0 20 21" fill="none" xmlns="http://www.w3.org/2000/svg">
<mask id="mask0_81_1688" style="mask-type:alpha" maskUnits="userSpaceOnUse" x="1" y="2" width="18" height="18">
<path d="M6.27881 2.09842C5.33302 2.14306 4.68704 2.29455 4.12255 2.51574C3.5382 2.74354 3.04285 3.04884 2.55008 3.54363C2.05673 4.0387 1.75375 4.53493 1.52768 5.11987C1.3088 5.6858 1.16047 6.33209 1.11871 7.27846C1.07724 8.22658 1.06773 8.52898 1.07236 10.9427C1.07696 13.3562 1.08761 13.6592 1.13282 14.6076C1.17804 15.5531 1.32896 16.1988 1.55015 16.7636C1.77824 17.348 2.08322 17.843 2.57829 18.3361C3.07308 18.8292 3.5696 19.1319 4.15481 19.3582C4.72016 19.5768 5.36671 19.7257 6.31281 19.7672C7.2609 19.809 7.56358 19.8182 9.97674 19.8136C12.3911 19.809 12.6937 19.7983 13.6418 19.7534C14.5876 19.7082 15.233 19.5567 15.7981 19.3361C16.3825 19.1074 16.8778 18.803 17.3706 18.3079C17.8633 17.8131 18.1663 17.3166 18.3924 16.7313C18.6113 16.166 18.7602 15.5194 18.8014 14.5739C18.8428 13.6252 18.8526 13.3222 18.848 10.9088C18.8434 8.49499 18.8325 8.19259 18.7875 7.24477C18.7426 6.29839 18.5911 5.65297 18.3702 5.08791C18.1419 4.50355 17.8372 4.00875 17.3424 3.5154C16.8476 3.02263 16.3511 2.71907 15.7658 2.49356C15.2002 2.27468 14.5539 2.12549 13.6078 2.08459C12.6597 2.04255 12.3571 2.03334 9.94305 2.03794C7.5296 2.04255 7.22692 2.05292 6.27881 2.09842ZM6.3825 18.1673C5.5159 18.1296 5.04532 17.9856 4.73169 17.8649C4.31639 17.7042 4.02004 17.5115 3.70813 17.2019C3.3968 16.8912 3.20355 16.5957 3.04141 16.1813C2.91957 15.8676 2.77299 15.3976 2.73238 14.531C2.68831 13.5941 2.67824 13.313 2.67392 10.9396C2.66931 8.56671 2.67794 8.28561 2.71885 7.34788C2.75599 6.48184 2.90087 6.01067 3.02124 5.69732C3.18194 5.28144 3.37403 4.98566 3.68422 4.67376C3.99497 4.36185 4.29045 4.16917 4.70518 4.00703C5.01852 3.88462 5.48855 3.73917 6.35485 3.698C7.29229 3.65364 7.57309 3.64414 9.94593 3.63953C12.3193 3.63492 12.6004 3.64328 13.5382 3.68446C14.4042 3.72218 14.8753 3.86562 15.1884 3.98686C15.604 4.14757 15.9003 4.33909 16.212 4.64985C16.5236 4.96061 16.7168 5.25552 16.879 5.67111C17.0014 5.98359 17.1468 6.45419 17.1877 7.32023C17.2323 8.25768 17.2424 8.53877 17.2467 10.9116C17.2513 13.2851 17.2427 13.5662 17.2015 14.5033C17.1638 15.3699 17.0201 15.8408 16.8991 16.1548C16.7384 16.5698 16.5463 16.8661 16.2358 17.178C15.9254 17.4888 15.6299 17.6826 15.2149 17.8448C14.9021 17.9669 14.4315 18.1126 13.5658 18.1538C12.6284 18.1979 12.3476 18.2079 9.97386 18.2123C7.60102 18.2169 7.32023 18.2079 6.3825 18.1673ZM13.6289 6.17426C13.63 6.76294 14.1087 7.23959 14.6974 7.23844C15.2863 7.23729 15.763 6.75891 15.7621 6.17023C15.7609 5.58154 15.2823 5.10461 14.6933 5.10577C14.1044 5.10692 13.6277 5.58558 13.6289 6.17426ZM5.39611 10.9344C5.40099 13.4553 7.44839 15.4944 9.96868 15.4895C12.4893 15.4846 14.5295 13.4377 14.5246 10.9168C14.5197 8.39679 12.472 6.35656 9.95112 6.36146C7.43081 6.36636 5.3912 8.41407 5.39611 10.9344ZM6.99709 10.9312C6.99421 9.29507 8.31844 7.96594 9.95428 7.96305C11.5904 7.95989 12.9198 9.28355 12.923 10.92C12.9262 12.5564 11.6019 13.8853 9.96551 13.8885C8.32967 13.8916 7.00025 12.5677 6.99709 10.9312Z" fill="#000008"/>
</mask>
<g mask="url(#mask0_81_1688)">
<rect x="0.326172" y="1.29248" width="19.3556" height="19.3556" fill="white"/>
<g filter="url(#filter0_f_81_1688)">
<ellipse cx="3.94824" cy="0.556056" rx="11.1667" ry="7.81667" transform="rotate(-14.9317 3.94824 0.556056)" fill="white"/>
</g>
<g filter="url(#filter1_f_81_1688)">
<ellipse cx="19.0619" cy="1.41666" rx="10.5463" ry="10.5463" fill="white"/>
</g>
<g filter="url(#filter2_f_81_1688)">
<ellipse cx="4.04735" cy="18.6628" rx="5.95555" ry="5.95556" fill="white"/>
</g>
</g>
<defs>
<filter id="filter0_f_81_1688" x="-43.8793" y="-44.3783" width="95.6551" height="89.8687" filterUnits="userSpaceOnUse" color-interpolation-filters="sRGB">
<feFlood flood-opacity="0" result="BackgroundImageFix"/>
<feBlend mode="normal" in="SourceGraphic" in2="BackgroundImageFix" result="shape"/>
<feGaussianBlur stdDeviation="18.425" result="effect1_foregroundBlur_81_1688"/>
</filter>
<filter id="filter1_f_81_1688" x="-36.151" y="-53.7963" width="110.426" height="110.426" filterUnits="userSpaceOnUse" color-interpolation-filters="sRGB">
<feFlood flood-opacity="0" result="BackgroundImageFix"/>
<feBlend mode="normal" in="SourceGraphic" in2="BackgroundImageFix" result="shape"/>
<feGaussianBlur stdDeviation="22.3333" result="effect1_foregroundBlur_81_1688"/>
</filter>
<filter id="filter2_f_81_1688" x="-37.6415" y="-23.0261" width="83.3778" height="83.3778" filterUnits="userSpaceOnUse" color-interpolation-filters="sRGB">
<feFlood flood-opacity="0" result="BackgroundImageFix"/>
<feBlend mode="normal" in="SourceGraphic" in2="BackgroundImageFix" result="shape"/>
<feGaussianBlur stdDeviation="17.8667" result="effect1_foregroundBlur_81_1688"/>
</filter>
</defs>
</svg>
