<svg width="24" height="24" viewBox="0 0 24 24" fill="none" xmlns="http://www.w3.org/2000/svg">
<path d="M2.99002 8.79502H7.16268V21.35H2.99002V8.79502ZM5.10374 2.74316C3.67659 2.74316 2.74316 3.68045 2.74316 4.91242C2.74316 6.11739 3.64882 7.08091 5.04896 7.08091H5.07596C6.53088 7.08091 7.43654 6.11662 7.43654 4.91242C7.40954 3.68045 6.53088 2.74316 5.10296 2.74316H5.10374ZM17.4049 8.50111C15.1902 8.50111 14.1989 9.71842 13.6442 10.5739V8.79579H9.47156C9.52634 9.97376 9.47156 21.3508 9.47156 21.3508H13.6442V14.3401C13.6442 13.9651 13.6712 13.5902 13.7815 13.3218C14.0832 12.5719 14.7697 11.7959 15.9222 11.7959C17.4319 11.7959 18.036 12.9469 18.036 14.6347V21.3508H22.2086V14.1518C22.2086 10.2954 20.1497 8.50111 17.4042 8.50111H17.4049Z" fill="white"/>
</svg>
