<svg width="100" height="100" viewBox="0 0 100 100" fill="none" xmlns="http://www.w3.org/2000/svg">
<path d="M53.9747 35.4125L59.281 40.7188C61.7188 43.1563 63.6526 46.0502 64.972 49.2352C66.2913 52.4202 66.9704 55.8338 66.9704 59.2813C66.9704 62.7287 66.2913 66.1424 64.972 69.3273C63.6526 72.5123 61.7188 75.4062 59.281 77.8438L57.9535 79.1675C53.0304 84.0906 46.3533 86.8564 39.391 86.8564C32.4287 86.8564 25.7516 84.0906 20.8285 79.1675C15.9054 74.2444 13.1396 67.5673 13.1396 60.605C13.1396 53.6427 15.9054 46.9656 20.8285 42.0425L26.1347 47.3488C24.3811 49.0871 22.9881 51.1547 22.0357 53.4328C21.0833 55.7109 20.5903 58.1547 20.5848 60.6239C20.5794 63.0931 21.0618 65.539 22.0042 67.8213C22.9466 70.1036 24.3306 72.1772 26.0765 73.9232C27.8225 75.6692 29.8962 77.0531 32.1785 77.9955C34.4607 78.938 36.9067 79.4203 39.3759 79.4149C41.845 79.4095 44.2888 78.9164 46.567 77.964C48.8451 77.0116 50.9127 75.6186 52.651 73.865L53.9785 72.5375C57.4936 69.0214 59.4682 64.2531 59.4682 59.2813C59.4682 54.3094 57.4936 49.5412 53.9785 46.025L48.6722 40.7188L53.9785 35.4163L53.9747 35.4125ZM79.1672 57.9538L73.8647 52.6513C75.6184 50.9129 77.0113 48.8454 77.9638 46.5672C78.9162 44.2891 79.4092 41.8453 79.4146 39.3761C79.42 36.9069 78.9377 34.461 77.9953 32.1787C77.0528 29.8965 75.6689 27.8228 73.9229 26.0768C72.1769 24.3308 70.1033 22.9469 67.821 22.0045C65.5387 21.0621 63.0928 20.5797 60.6236 20.5851C58.1544 20.5905 55.7106 21.0836 53.4325 22.036C51.1544 22.9884 49.0868 24.3814 47.3485 26.135L46.021 27.4625C42.5059 30.9787 40.5312 35.7469 40.5312 40.7188C40.5312 45.6906 42.5059 50.4589 46.021 53.975L51.3272 59.2813L46.021 64.5838L40.7185 59.2813C38.2807 56.8437 36.3469 53.9498 35.0275 50.7648C33.7082 47.5799 33.0291 44.1662 33.0291 40.7188C33.0291 37.2713 33.7082 33.8577 35.0275 30.6727C36.3469 27.4877 38.2807 24.5938 40.7185 22.1563L42.046 20.8325C46.9691 15.9094 53.6462 13.1437 60.6085 13.1437C67.5708 13.1437 74.2479 15.9094 79.171 20.8325C84.0941 25.7556 86.8598 32.4327 86.8598 39.395C86.8598 46.3573 84.0941 53.0344 79.171 57.9575L79.1672 57.9538Z" fill="white"/>
</svg>
