<svg width="143" height="48" viewBox="0 0 143 48" fill="none" xmlns="http://www.w3.org/2000/svg">
<rect width="48" height="48" rx="24" fill="#7D52F4"/>
<path d="M31.9191 16.7187C31.1267 14.5559 29.6649 12.7024 27.7464 11.4277C27.6222 11.3435 27.4939 11.2593 27.3456 11.1791C27.1973 11.099 27.045 10.9988 26.8926 10.9186L26.6041 10.7703L26.3515 10.626C24.9163 9.94903 23.3488 9.59859 21.762 9.59986H21.5615C19.0548 9.64761 16.6428 10.5665 14.7397 12.1987C12.8366 13.831 11.561 16.0748 11.1319 18.545C10.7028 21.0152 11.147 23.5578 12.3882 25.7362C13.6294 27.9146 15.5902 29.593 17.934 30.4834C18.0182 30.5154 18.1023 30.5475 18.1865 30.5716V16.8269H31.9632L31.9191 16.7187Z" fill="white"/>
<path d="M26.0061 38.404H28.876V30.5717H18.1777C18.1772 31.6 18.3793 32.6184 18.7725 33.5686C19.1657 34.5189 19.7422 35.3823 20.4692 36.1097C21.1962 36.837 22.0593 37.414 23.0094 37.8077C23.9594 38.2013 24.9777 38.404 26.0061 38.404Z" fill="white"/>
<path d="M28.8765 22.7435V30.5718H29.2011C30.2295 30.5724 31.2479 30.3703 32.1981 29.9771C33.1484 29.5839 34.0118 29.0074 34.7392 28.2804C35.4665 27.5534 36.0435 26.6903 36.4372 25.7402C36.8308 24.7902 37.0335 23.7719 37.0335 22.7435H28.8765Z" fill="white"/>
<path d="M72.5509 18.6368C72.404 18.1609 72.2012 17.7349 71.9427 17.3588C71.69 16.9769 71.3845 16.6508 71.0261 16.3805C70.6735 16.1102 70.2681 15.9075 69.8098 15.7723C69.3515 15.6313 68.852 15.5608 68.3114 15.5608C67.3419 15.5608 66.4781 15.8046 65.7202 16.2923C64.9622 16.78 64.3658 17.4969 63.931 18.4429C63.502 19.383 63.2876 20.5288 63.2876 21.8803C63.2876 23.2435 63.502 24.3981 63.931 25.3441C64.3599 26.2901 64.9563 27.0099 65.7202 27.5035C66.484 27.9912 67.3713 28.235 68.3819 28.235C69.2986 28.235 70.0918 28.0588 70.7617 27.7062C71.4374 27.3537 71.9574 26.8542 72.3217 26.2079C72.686 25.5556 72.8682 24.7918 72.8682 23.9163L73.6085 24.0308H68.708V21.4748H76.0323V23.643C76.0323 25.1884 75.7033 26.5252 75.0452 27.6533C74.3871 28.7815 73.4822 29.6511 72.3305 30.2622C71.1788 30.8674 69.8568 31.17 68.3643 31.17C66.7014 31.17 65.2413 30.7969 63.9838 30.0507C62.7323 29.2986 61.7539 28.2321 61.0488 26.8513C60.3496 25.4646 60 23.8193 60 21.9155C60 20.4583 60.2057 19.1568 60.617 18.011C61.0342 16.8652 61.6159 15.8928 62.3621 15.0936C63.1083 14.2887 63.9838 13.6776 64.9886 13.2604C65.9934 12.8373 67.0863 12.6258 68.2674 12.6258C69.2662 12.6258 70.1976 12.7727 71.0613 13.0665C71.9251 13.3544 72.6919 13.7657 73.3617 14.3004C74.0375 14.8351 74.5927 15.4697 75.0275 16.2042C75.4624 16.9387 75.7473 17.7495 75.8825 18.6368H72.5509Z" fill="white"/>
<path d="M79.0532 30.9232V17.3852H82.1469V19.6416H82.2879C82.5347 18.8601 82.9578 18.2578 83.5571 17.8347C84.1623 17.4058 84.8527 17.1913 85.6283 17.1913C85.8046 17.1913 86.0015 17.2001 86.2189 17.2178C86.4422 17.2295 86.6272 17.2501 86.7741 17.2795V20.2145C86.639 20.1675 86.4245 20.1263 86.1307 20.0911C85.8428 20.0499 85.5637 20.0294 85.2934 20.0294C84.7117 20.0294 84.1888 20.1557 83.7246 20.4084C83.2662 20.6552 82.9049 20.9989 82.6405 21.4396C82.3761 21.8803 82.2438 22.3885 82.2438 22.9644V30.9232H79.0532Z" fill="white"/>
<path d="M88.8939 30.9232V17.3852H92.0845V30.9232H88.8939ZM90.498 15.4638C89.9927 15.4638 89.5578 15.2964 89.1935 14.9614C88.8292 14.6206 88.6471 14.2123 88.6471 13.7363C88.6471 13.2545 88.8292 12.8461 89.1935 12.5112C89.5578 12.1704 89.9927 12 90.498 12C91.0092 12 91.444 12.1704 91.8024 12.5112C92.1667 12.8461 92.3489 13.2545 92.3489 13.7363C92.3489 14.2123 92.1667 14.6206 91.8024 14.9614C91.444 15.2964 91.0092 15.4638 90.498 15.4638Z" fill="white"/>
<path d="M100.389 31.1612C99.3257 31.1612 98.3738 30.888 97.5336 30.3415C96.6933 29.7951 96.0294 29.0018 95.5417 27.9618C95.054 26.9218 94.8101 25.6585 94.8101 24.1719C94.8101 22.6676 95.0569 21.3985 95.5505 20.3643C96.0499 19.3243 96.7227 18.5398 97.5689 18.011C98.415 17.4763 99.3581 17.209 100.398 17.209C101.191 17.209 101.844 17.3441 102.355 17.6144C102.866 17.8788 103.271 18.199 103.571 18.5751C103.871 18.9453 104.103 19.2949 104.267 19.6239H104.4V12.8726H107.599V30.9232H104.461V28.7903H104.267C104.103 29.1194 103.865 29.469 103.553 29.8391C103.242 30.2035 102.831 30.5149 102.319 30.7734C101.808 31.0319 101.165 31.1612 100.389 31.1612ZM101.279 28.5435C101.955 28.5435 102.531 28.3614 103.007 27.9971C103.483 27.6269 103.844 27.1127 104.091 26.4546C104.338 25.7965 104.461 25.0297 104.461 24.1542C104.461 23.2787 104.338 22.5178 104.091 21.8715C103.85 21.2251 103.492 20.7227 103.016 20.3643C102.546 20.0059 101.967 19.8267 101.279 19.8267C100.568 19.8267 99.975 20.0118 99.4991 20.3819C99.0231 20.7521 98.6647 21.2633 98.4238 21.9155C98.1829 22.5678 98.0624 23.314 98.0624 24.1542C98.0624 25.0004 98.1829 25.7554 98.4238 26.4194C98.6706 27.0775 99.0319 27.5975 99.5079 27.9794C99.9897 28.3555 100.58 28.5435 101.279 28.5435Z" fill="white"/>
<path d="M110.999 30.9232V17.3852H114.189V30.9232H110.999ZM112.603 15.4638C112.098 15.4638 111.663 15.2964 111.299 14.9614C110.934 14.6206 110.752 14.2123 110.752 13.7363C110.752 13.2545 110.934 12.8461 111.299 12.5112C111.663 12.1704 112.098 12 112.603 12C113.114 12 113.549 12.1704 113.907 12.5112C114.272 12.8461 114.454 13.2545 114.454 13.7363C114.454 14.2123 114.272 14.6206 113.907 14.9614C113.549 15.2964 113.114 15.4638 112.603 15.4638Z" fill="white"/>
<path d="M124.328 17.3852V19.8531H116.325V17.3852H124.328ZM118.325 30.9232V16.1072C118.325 15.1965 118.513 14.4385 118.889 13.8333C119.271 13.2281 119.783 12.7756 120.423 12.4759C121.064 12.1763 121.775 12.0264 122.556 12.0264C123.108 12.0264 123.599 12.0705 124.028 12.1586C124.457 12.2468 124.774 12.3261 124.98 12.3966L124.345 14.8645C124.21 14.8234 124.04 14.7822 123.834 14.7411C123.628 14.6941 123.399 14.6706 123.147 14.6706C122.553 14.6706 122.133 14.8145 121.886 15.1025C121.645 15.3845 121.525 15.7899 121.525 16.3188V30.9232H118.325Z" fill="white"/>
<path d="M128.809 36C128.375 36 127.972 35.9647 127.602 35.8942C127.238 35.8296 126.947 35.7532 126.729 35.6651L127.47 33.1796C127.934 33.3147 128.348 33.3794 128.712 33.3735C129.077 33.3676 129.397 33.253 129.673 33.0297C129.955 32.8123 130.193 32.448 130.387 31.9368L130.66 31.2053L125.751 17.3852H129.136L132.256 27.6093H132.397L135.526 17.3852H138.919L133.498 32.5626C133.246 33.2795 132.911 33.8935 132.494 34.4047C132.076 34.9218 131.565 35.3155 130.96 35.5858C130.361 35.8619 129.644 36 128.809 36Z" fill="white"/>
</svg>
