<svg width="95" height="32" viewBox="0 0 95 32" fill="none" xmlns="http://www.w3.org/2000/svg">
<rect width="32" height="32" rx="16" fill="#7D52F4"/>
<path d="M21.2788 11.1459C20.7505 9.70403 19.776 8.46833 18.497 7.61853C18.4141 7.56241 18.3286 7.50629 18.2297 7.45285C18.1309 7.3994 18.0293 7.3326 17.9278 7.27916L17.7354 7.18028L17.567 7.08408C16.6102 6.63277 15.5652 6.39914 14.5073 6.39999H14.3737C12.7025 6.43183 11.0946 7.0444 9.82583 8.13256C8.55708 9.22072 7.7067 10.7166 7.42064 12.3634C7.13458 14.0102 7.4307 15.7053 8.25816 17.1575C9.08562 18.6098 10.3928 19.7288 11.9553 20.3223C12.0115 20.3437 12.0676 20.3651 12.1237 20.3811V11.218H21.3082L21.2788 11.1459Z" fill="white"/>
<path d="M17.338 25.6027H19.2513V20.3811H12.1191C12.1188 21.0667 12.2535 21.7456 12.5156 22.3791C12.7778 23.0126 13.1621 23.5883 13.6468 24.0732C14.1314 24.5581 14.7069 24.9427 15.3402 25.2052C15.9736 25.4676 16.6524 25.6027 17.338 25.6027Z" fill="white"/>
<path d="M19.25 15.1623V20.3811H19.4665C20.152 20.3815 20.831 20.2467 21.4644 19.9846C22.0979 19.7225 22.6736 19.3381 23.1585 18.8535C23.6434 18.3688 24.028 17.7934 24.2905 17.16C24.5529 16.5267 24.688 15.8478 24.688 15.1623H19.25Z" fill="white"/>
<path d="M48.3672 12.4245C48.2693 12.1072 48.1342 11.8232 47.9618 11.5725C47.7934 11.3179 47.5897 11.1005 47.3507 10.9203C47.1157 10.7401 46.8454 10.605 46.5398 10.5149C46.2343 10.4209 45.9013 10.3739 45.5409 10.3739C44.8946 10.3739 44.3188 10.5364 43.8134 10.8616C43.3081 11.1867 42.9105 11.6646 42.6206 12.2953C42.3347 12.922 42.1917 13.6859 42.1917 14.5869C42.1917 15.4957 42.3347 16.2654 42.6206 16.8961C42.9066 17.5267 43.3042 18.0066 43.8134 18.3357C44.3227 18.6608 44.9142 18.8234 45.588 18.8234C46.199 18.8234 46.7279 18.7058 47.1744 18.4708C47.6249 18.2358 47.9716 17.9028 48.2145 17.4719C48.4573 17.0371 48.5788 16.5278 48.5788 15.9442L49.0723 16.0206H45.8054V14.3166H50.6882V15.762C50.6882 16.7923 50.4688 17.6834 50.0301 18.4355C49.5914 19.1877 48.9881 19.7674 48.2203 20.1748C47.4526 20.5783 46.5712 20.78 45.5762 20.78C44.4676 20.78 43.4942 20.5313 42.6559 20.0338C41.8215 19.5324 41.1693 18.8214 40.6992 17.9008C40.2331 16.9764 40 15.8795 40 14.6104C40 13.6389 40.1371 12.7712 40.4113 12.0073C40.6894 11.2435 41.0772 10.5952 41.5747 10.0624C42.0722 9.52577 42.6559 9.11837 43.3257 8.84025C43.9956 8.55821 44.7242 8.41719 45.5116 8.41719C46.1775 8.41719 46.7984 8.51512 47.3742 8.71098C47.9501 8.90293 48.4613 9.17713 48.9078 9.5336C49.3583 9.89007 49.7285 10.3131 50.0184 10.8028C50.3082 11.2924 50.4982 11.833 50.5883 12.4245H48.3672Z" fill="white"/>
<path d="M52.7022 20.6155V11.5902H54.7646V13.0944H54.8586C55.0231 12.5734 55.3052 12.1719 55.7047 11.8898C56.1082 11.6039 56.5685 11.4609 57.0856 11.4609C57.2031 11.4609 57.3343 11.4668 57.4792 11.4785C57.6281 11.4864 57.7515 11.5001 57.8494 11.5196V13.4763C57.7593 13.445 57.6164 13.4176 57.4205 13.3941C57.2285 13.3666 57.0425 13.3529 56.8623 13.3529C56.4745 13.3529 56.1258 13.4371 55.8164 13.6056C55.5108 13.7701 55.2699 13.9993 55.0936 14.2931C54.9174 14.5869 54.8292 14.9257 54.8292 15.3096V20.6155H52.7022Z" fill="white"/>
<path d="M59.2626 20.6155V11.5902H61.3896V20.6155H59.2626ZM60.332 10.3092C59.9951 10.3092 59.7052 10.1976 59.4624 9.97429C59.2195 9.74709 59.0981 9.47484 59.0981 9.15755C59.0981 8.83633 59.2195 8.56408 59.4624 8.3408C59.7052 8.1136 59.9951 8 60.332 8C60.6728 8 60.9627 8.1136 61.2016 8.3408C61.4445 8.56408 61.5659 8.83633 61.5659 9.15755C61.5659 9.47484 61.4445 9.74709 61.2016 9.97429C60.9627 10.1976 60.6728 10.3092 60.332 10.3092Z" fill="white"/>
<path d="M66.9262 20.7741C66.2172 20.7741 65.5826 20.592 65.0224 20.2277C64.4622 19.8634 64.0196 19.3346 63.6945 18.6412C63.3693 17.9479 63.2068 17.1056 63.2068 16.1146C63.2068 15.1118 63.3713 14.2656 63.7003 13.5762C64.0333 12.8828 64.4818 12.3599 65.0459 12.0073C65.61 11.6509 66.2387 11.4726 66.9321 11.4726C67.4609 11.4726 67.8957 11.5627 68.2365 11.7429C68.5773 11.9192 68.8476 12.1327 69.0474 12.3834C69.2472 12.6302 69.4019 12.8633 69.5116 13.0826H69.5997V8.58171H71.7326V20.6155H69.6408V19.1935H69.5116C69.4019 19.4129 69.2432 19.646 69.0356 19.8928C68.828 20.1356 68.5538 20.3432 68.213 20.5156C67.8722 20.688 67.4433 20.7741 66.9262 20.7741ZM67.5196 19.029C67.9701 19.029 68.354 18.9076 68.6713 18.6647C68.9886 18.4179 69.2295 18.0752 69.394 17.6364C69.5586 17.1977 69.6408 16.6865 69.6408 16.1028C69.6408 15.5192 69.5586 15.0119 69.394 14.581C69.2334 14.1501 68.9945 13.8152 68.6772 13.5762C68.3638 13.3372 67.978 13.2178 67.5196 13.2178C67.0457 13.2178 66.65 13.3412 66.3327 13.588C66.0154 13.8347 65.7765 14.1755 65.6159 14.6104C65.4553 15.0452 65.375 15.5427 65.375 16.1028C65.375 16.6669 65.4553 17.1703 65.6159 17.6129C65.7804 18.0517 66.0213 18.3983 66.3386 18.653C66.6598 18.9037 67.0535 19.029 67.5196 19.029Z" fill="white"/>
<path d="M73.9993 20.6155V11.5902H76.1263V20.6155H73.9993ZM75.0687 10.3092C74.7318 10.3092 74.4419 10.1976 74.199 9.97429C73.9562 9.74709 73.8347 9.47484 73.8347 9.15755C73.8347 8.83633 73.9562 8.56408 74.199 8.3408C74.4419 8.1136 74.7318 8 75.0687 8C75.4095 8 75.6993 8.1136 75.9383 8.3408C76.1812 8.56408 76.3026 8.83633 76.3026 9.15755C76.3026 9.47484 76.1812 9.74709 75.9383 9.97429C75.6993 10.1976 75.4095 10.3092 75.0687 10.3092Z" fill="white"/>
<path d="M82.885 11.5902V13.2354H77.5498V11.5902H82.885ZM78.8836 20.6155V10.7382C78.8836 10.131 79.0089 9.62566 79.2596 9.22218C79.5143 8.8187 79.8551 8.51708 80.282 8.3173C80.709 8.11752 81.183 8.01763 81.704 8.01763C82.0722 8.01763 82.3993 8.04701 82.6853 8.10577C82.9712 8.16452 83.1828 8.21741 83.3199 8.26441L82.8968 9.90966C82.8067 9.88224 82.6931 9.85482 82.556 9.8274C82.4189 9.79606 82.2661 9.78039 82.0977 9.78039C81.702 9.78039 81.422 9.87636 81.2574 10.0683C81.0968 10.2563 81.0165 10.5266 81.0165 10.8792V20.6155H78.8836Z" fill="white"/>
<path d="M85.8729 24C85.5831 24 85.3147 23.9765 85.0679 23.9295C84.8251 23.8864 84.6312 23.8355 84.4862 23.7767L84.9798 22.1197C85.2893 22.2098 85.5654 22.2529 85.8083 22.249C86.0512 22.2451 86.2647 22.1687 86.4488 22.0198C86.6368 21.8749 86.7954 21.632 86.9247 21.2912L87.1069 20.8035L83.834 11.5902H86.0903L88.1704 18.4062H88.2644L90.3503 11.5902H92.6126L88.9989 21.7084C88.8305 22.1863 88.6072 22.5957 88.329 22.9365C88.0509 23.2812 87.7101 23.5436 87.3066 23.7238C86.9071 23.9079 86.4292 24 85.8729 24Z" fill="white"/>
</svg>
