<svg width="24" height="25" viewBox="0 0 24 25" fill="none" xmlns="http://www.w3.org/2000/svg">
<path d="M3.9 5.0907H20.1C20.3387 5.0907 20.5676 5.18552 20.7364 5.3543C20.9052 5.52308 21 5.752 21 5.9907V19.1907C21 19.4294 20.9052 19.6583 20.7364 19.8271C20.5676 19.9959 20.3387 20.0907 20.1 20.0907H3.9C3.66131 20.0907 3.43239 19.9959 3.2636 19.8271C3.09482 19.6583 3 19.4294 3 19.1907V5.9907C3 5.752 3.09482 5.52308 3.2636 5.3543C3.43239 5.18552 3.66131 5.0907 3.9 5.0907ZM19.2 8.9049L12.0648 15.2949L4.8 8.8851V18.2907H19.2V8.9049ZM5.2599 6.8907L12.0549 12.8865L18.7518 6.8907H5.2599Z" fill="white"/>
</svg>
