<svg width="24" height="25" viewBox="0 0 24 25" fill="none" xmlns="http://www.w3.org/2000/svg">
<path d="M20.1004 16.5687V19.7511C20.1005 19.979 20.0142 20.1984 19.8588 20.3651C19.7035 20.5318 19.4907 20.6334 19.2634 20.6493C18.8701 20.6763 18.5488 20.6907 18.3004 20.6907C10.3471 20.6907 3.90039 14.244 3.90039 6.29072C3.90039 6.04232 3.91389 5.72102 3.94179 5.32772C3.95774 5.10042 4.05931 4.88763 4.22601 4.73229C4.39271 4.57695 4.61213 4.49062 4.83999 4.49072H8.02239C8.13403 4.49061 8.24172 4.532 8.32455 4.60684C8.40737 4.68169 8.45943 4.78465 8.47059 4.89572C8.49129 5.10272 8.51019 5.26742 8.52819 5.39252C8.70705 6.64075 9.07359 7.85477 9.61539 8.99342C9.70089 9.17342 9.64509 9.38852 9.48309 9.50372L7.54089 10.8915C8.7284 13.6585 10.9335 15.8636 13.7005 17.0511L15.0865 15.1125C15.1431 15.0333 15.2258 14.9765 15.32 14.952C15.4143 14.9275 15.5141 14.9369 15.6022 14.9784C16.7407 15.5192 17.9544 15.8848 19.2022 16.0629C19.3273 16.0809 19.492 16.1007 19.6972 16.1205C19.8081 16.1319 19.9108 16.184 19.9855 16.2668C20.0602 16.3497 20.1014 16.4572 20.1013 16.5687H20.1004Z" fill="white"/>
</svg>
