<svg width="49" height="48" viewBox="0 0 49 48" fill="none" xmlns="http://www.w3.org/2000/svg">
<g filter="url(#filter0_i_174110_3109)">
<rect x="0.333496" width="48" height="48" rx="24" fill="url(#paint0_linear_174110_3109)"/>
<rect x="0.833496" y="0.5" width="47" height="47" rx="23.5" stroke="url(#paint1_linear_174110_3109)"/>
<path d="M15.3335 16C15.3335 15.4696 15.5442 14.9609 15.9193 14.5858C16.2944 14.2107 16.8031 14 17.3335 14H23.3335V34H17.3335C16.8031 34 16.2944 33.7893 15.9193 33.4142C15.5442 33.0391 15.3335 32.5304 15.3335 32V16Z" stroke="url(#paint2_linear_174110_3109)" stroke-width="2" stroke-linecap="round" stroke-linejoin="round"/>
<path d="M33.3335 16C33.3335 15.4696 33.1228 14.9609 32.7477 14.5858C32.3726 14.2107 31.8639 14 31.3335 14H25.3335V34H31.3335C31.8639 34 32.3726 33.7893 32.7477 33.4142C33.1228 33.0391 33.3335 32.5304 33.3335 32V16Z" stroke="url(#paint3_linear_174110_3109)" stroke-width="2" stroke-linecap="round" stroke-linejoin="round"/>
</g>
<defs>
<filter id="filter0_i_174110_3109" x="0.333496" y="0" width="48" height="48" filterUnits="userSpaceOnUse" color-interpolation-filters="sRGB">
<feFlood flood-opacity="0" result="BackgroundImageFix"/>
<feBlend mode="normal" in="SourceGraphic" in2="BackgroundImageFix" result="shape"/>
<feColorMatrix in="SourceAlpha" type="matrix" values="0 0 0 0 0 0 0 0 0 0 0 0 0 0 0 0 0 0 127 0" result="hardAlpha"/>
<feOffset/>
<feGaussianBlur stdDeviation="2"/>
<feComposite in2="hardAlpha" operator="arithmetic" k2="-1" k3="1"/>
<feColorMatrix type="matrix" values="0 0 0 0 1 0 0 0 0 1 0 0 0 0 1 0 0 0 0.1 0"/>
<feBlend mode="normal" in2="shape" result="effect1_innerShadow_174110_3109"/>
</filter>
<linearGradient id="paint0_linear_174110_3109" x1="24.3335" y1="14.4" x2="24.3335" y2="48" gradientUnits="userSpaceOnUse">
<stop stop-color="#180E37"/>
<stop offset="1" stop-color="#0D0917"/>
</linearGradient>
<linearGradient id="paint1_linear_174110_3109" x1="20.1335" y1="28.2" x2="16.8736" y2="0.726943" gradientUnits="userSpaceOnUse">
<stop stop-color="white" stop-opacity="0"/>
<stop offset="1" stop-color="white" stop-opacity="0.5"/>
</linearGradient>
<linearGradient id="paint2_linear_174110_3109" x1="19.3335" y1="14" x2="19.3335" y2="34" gradientUnits="userSpaceOnUse">
<stop stop-color="white"/>
<stop offset="1" stop-color="#BABABA"/>
</linearGradient>
<linearGradient id="paint3_linear_174110_3109" x1="29.3335" y1="14" x2="29.3335" y2="34" gradientUnits="userSpaceOnUse">
<stop stop-color="white"/>
<stop offset="1" stop-color="#BABABA"/>
</linearGradient>
</defs>
</svg>
