<svg width="49" height="48" viewBox="0 0 49 48" fill="none" xmlns="http://www.w3.org/2000/svg">
<g filter="url(#filter0_i_174110_3097)">
<path d="M0.666748 24C0.666748 10.7452 11.4119 0 24.6667 0C37.9216 0 48.6667 10.7452 48.6667 24C48.6667 37.2548 37.9216 48 24.6667 48C11.4119 48 0.666748 37.2548 0.666748 24Z" fill="url(#paint0_linear_174110_3097)"/>
<path d="M24.6667 0.5C37.6454 0.5 48.1667 11.0213 48.1667 24C48.1667 36.9787 37.6454 47.5 24.6667 47.5C11.6881 47.5 1.16675 36.9787 1.16675 24C1.16675 11.0213 11.6881 0.5 24.6667 0.5Z" stroke="url(#paint1_linear_174110_3097)"/>
<g clip-path="url(#clip0_174110_3097)">
<path d="M13.6667 24C13.6667 24 17.6667 16 24.6667 16C31.6667 16 35.6667 24 35.6667 24C35.6667 24 31.6667 32 24.6667 32C17.6667 32 13.6667 24 13.6667 24Z" stroke="url(#paint2_linear_174110_3097)" stroke-width="2" stroke-linecap="round" stroke-linejoin="round"/>
<path d="M24.6667 27C26.3236 27 27.6667 25.6569 27.6667 24C27.6667 22.3431 26.3236 21 24.6667 21C23.0099 21 21.6667 22.3431 21.6667 24C21.6667 25.6569 23.0099 27 24.6667 27Z" stroke="url(#paint3_linear_174110_3097)" stroke-width="2" stroke-linecap="round" stroke-linejoin="round"/>
</g>
</g>
<defs>
<filter id="filter0_i_174110_3097" x="0.666748" y="0" width="48" height="48" filterUnits="userSpaceOnUse" color-interpolation-filters="sRGB">
<feFlood flood-opacity="0" result="BackgroundImageFix"/>
<feBlend mode="normal" in="SourceGraphic" in2="BackgroundImageFix" result="shape"/>
<feColorMatrix in="SourceAlpha" type="matrix" values="0 0 0 0 0 0 0 0 0 0 0 0 0 0 0 0 0 0 127 0" result="hardAlpha"/>
<feOffset/>
<feGaussianBlur stdDeviation="2"/>
<feComposite in2="hardAlpha" operator="arithmetic" k2="-1" k3="1"/>
<feColorMatrix type="matrix" values="0 0 0 0 1 0 0 0 0 1 0 0 0 0 1 0 0 0 0.1 0"/>
<feBlend mode="normal" in2="shape" result="effect1_innerShadow_174110_3097"/>
</filter>
<linearGradient id="paint0_linear_174110_3097" x1="24.6667" y1="14.4" x2="24.6667" y2="48" gradientUnits="userSpaceOnUse">
<stop stop-color="#180E37"/>
<stop offset="1" stop-color="#0D0917"/>
</linearGradient>
<linearGradient id="paint1_linear_174110_3097" x1="20.4667" y1="28.2" x2="17.2069" y2="0.726943" gradientUnits="userSpaceOnUse">
<stop stop-color="white" stop-opacity="0"/>
<stop offset="1" stop-color="white" stop-opacity="0.5"/>
</linearGradient>
<linearGradient id="paint2_linear_174110_3097" x1="24.6667" y1="16" x2="24.6667" y2="32" gradientUnits="userSpaceOnUse">
<stop stop-color="white"/>
<stop offset="1" stop-color="#BABABA"/>
</linearGradient>
<linearGradient id="paint3_linear_174110_3097" x1="24.6667" y1="21" x2="24.6667" y2="27" gradientUnits="userSpaceOnUse">
<stop stop-color="white"/>
<stop offset="1" stop-color="#BABABA"/>
</linearGradient>
<clipPath id="clip0_174110_3097">
<rect width="24" height="24" fill="white" transform="translate(12.6667 12)"/>
</clipPath>
</defs>
</svg>
