<svg width="256" height="256" viewBox="0 0 256 256" fill="none" xmlns="http://www.w3.org/2000/svg">
<rect width="256" height="256" fill="#1B1A1F"/>
<rect x="41" y="104" width="48" height="48" rx="24" fill="#7D52F4"/>
<path d="M72.9185 120.719C72.1261 118.556 70.6643 116.702 68.7458 115.428C68.6216 115.344 68.4933 115.259 68.345 115.179C68.1967 115.099 68.0444 114.999 67.892 114.919L67.6034 114.77L67.3509 114.626C65.9157 113.949 64.3482 113.599 62.7614 113.6H62.5609C60.0542 113.648 57.6422 114.567 55.7391 116.199C53.836 117.831 52.5604 120.075 52.1313 122.545C51.7022 125.015 52.1464 127.558 53.3876 129.736C54.6288 131.915 56.5896 133.593 58.9334 134.483C59.0176 134.516 59.1017 134.548 59.1859 134.572V120.827H72.9626L72.9185 120.719Z" fill="white"/>
<path d="M67.0064 142.404H69.8764V134.572H59.1781C59.1776 135.6 59.3797 136.618 59.7728 137.569C60.166 138.519 60.7426 139.382 61.4695 140.11C62.1965 140.837 63.0597 141.414 64.0097 141.808C64.9598 142.201 65.9781 142.404 67.0064 142.404Z" fill="white"/>
<path d="M69.8762 126.743V134.572H70.2009C71.2293 134.572 72.2477 134.37 73.1979 133.977C74.1481 133.584 75.0116 133.007 75.7389 132.28C76.4663 131.553 77.0433 130.69 77.4369 129.74C77.8306 128.79 78.0332 127.772 78.0332 126.743H69.8762Z" fill="white"/>
<path d="M119.418 119.732C119.191 118.998 118.877 118.341 118.477 117.761C118.086 117.173 117.614 116.67 117.059 116.253C116.514 115.837 115.886 115.524 115.177 115.316C114.468 115.098 113.696 114.99 112.859 114.99C111.359 114.99 110.023 115.365 108.85 116.117C107.677 116.869 106.755 117.974 106.082 119.433C105.418 120.882 105.086 122.649 105.086 124.732C105.086 126.834 105.418 128.614 106.082 130.072C106.746 131.531 107.668 132.64 108.85 133.401C110.032 134.153 111.405 134.529 112.968 134.529C114.386 134.529 115.614 134.257 116.65 133.714C117.696 133.17 118.5 132.4 119.064 131.404C119.627 130.398 119.909 129.221 119.909 127.871L121.055 128.048H113.473V124.107H124.805V127.45C124.805 129.832 124.296 131.893 123.277 133.632C122.259 135.371 120.859 136.712 119.077 137.654C117.296 138.587 115.25 139.054 112.941 139.054C110.368 139.054 108.109 138.479 106.164 137.328C104.227 136.169 102.714 134.524 101.623 132.396C100.541 130.258 100 127.721 100 124.786C100 122.54 100.318 120.533 100.955 118.767C101.6 117.001 102.5 115.501 103.655 114.269C104.809 113.028 106.164 112.086 107.718 111.443C109.273 110.791 110.964 110.465 112.791 110.465C114.336 110.465 115.777 110.691 117.114 111.144C118.45 111.588 119.636 112.222 120.673 113.046C121.718 113.871 122.577 114.849 123.25 115.981C123.923 117.114 124.364 118.364 124.573 119.732H119.418Z" fill="white"/>
<path d="M129.479 138.673V117.802H134.265V121.281H134.483C134.865 120.076 135.52 119.147 136.447 118.495C137.383 117.834 138.451 117.503 139.651 117.503C139.924 117.503 140.229 117.517 140.565 117.544C140.911 117.562 141.197 117.594 141.424 117.639V122.164C141.215 122.092 140.883 122.028 140.429 121.974C139.983 121.91 139.551 121.879 139.133 121.879C138.233 121.879 137.424 122.073 136.706 122.463C135.997 122.843 135.438 123.373 135.029 124.053C134.62 124.732 134.415 125.516 134.415 126.403V138.673H129.479Z" fill="white"/>
<path d="M144.704 138.673V117.802H149.64V138.673H144.704ZM147.186 114.84C146.404 114.84 145.731 114.582 145.167 114.066C144.604 113.54 144.322 112.911 144.322 112.177C144.322 111.434 144.604 110.804 145.167 110.288C145.731 109.763 146.404 109.5 147.186 109.5C147.976 109.5 148.649 109.763 149.204 110.288C149.767 110.804 150.049 111.434 150.049 112.177C150.049 112.911 149.767 113.54 149.204 114.066C148.649 114.582 147.976 114.84 147.186 114.84Z" fill="white"/>
<path d="M162.489 139.04C160.844 139.04 159.371 138.619 158.071 137.777C156.771 136.934 155.744 135.711 154.989 134.108C154.234 132.504 153.857 130.557 153.857 128.265C153.857 125.946 154.239 123.989 155.003 122.395C155.775 120.792 156.816 119.582 158.125 118.767C159.434 117.943 160.894 117.53 162.503 117.53C163.73 117.53 164.739 117.739 165.53 118.156C166.321 118.563 166.948 119.057 167.412 119.637C167.875 120.207 168.235 120.746 168.489 121.254H168.694V110.845H173.644V138.673H168.789V135.385H168.489C168.235 135.892 167.866 136.431 167.385 137.002C166.903 137.564 166.266 138.044 165.475 138.442C164.685 138.841 163.689 139.04 162.489 139.04ZM163.866 135.005C164.912 135.005 165.803 134.724 166.539 134.162C167.275 133.591 167.835 132.799 168.216 131.784C168.598 130.77 168.789 129.588 168.789 128.238C168.789 126.888 168.598 125.715 168.216 124.719C167.844 123.722 167.289 122.948 166.553 122.395C165.825 121.842 164.93 121.566 163.866 121.566C162.766 121.566 161.848 121.851 161.112 122.422C160.375 122.993 159.821 123.781 159.448 124.786C159.075 125.792 158.889 126.942 158.889 128.238C158.889 129.542 159.075 130.706 159.448 131.73C159.83 132.744 160.389 133.546 161.125 134.135C161.871 134.715 162.785 135.005 163.866 135.005Z" fill="white"/>
<path d="M178.904 138.673V117.802H183.84V138.673H178.904ZM181.386 114.84C180.604 114.84 179.931 114.582 179.368 114.066C178.804 113.54 178.522 112.911 178.522 112.177C178.522 111.434 178.804 110.804 179.368 110.288C179.931 109.763 180.604 109.5 181.386 109.5C182.177 109.5 182.849 109.763 183.404 110.288C183.968 110.804 184.249 111.434 184.249 112.177C184.249 112.911 183.968 113.54 183.404 114.066C182.849 114.582 182.177 114.84 181.386 114.84Z" fill="white"/>
<path d="M199.526 117.802V121.607H187.144V117.802H199.526ZM190.239 138.673V115.832C190.239 114.428 190.53 113.259 191.112 112.326C191.703 111.393 192.494 110.696 193.485 110.234C194.476 109.772 195.576 109.541 196.785 109.541C197.639 109.541 198.398 109.609 199.062 109.745C199.726 109.88 200.217 110.003 200.535 110.111L199.553 113.916C199.344 113.853 199.08 113.789 198.762 113.726C198.444 113.653 198.089 113.617 197.698 113.617C196.78 113.617 196.13 113.839 195.748 114.283C195.376 114.718 195.189 115.343 195.189 116.158V138.673H190.239Z" fill="white"/>
<path d="M206.46 146.5C205.787 146.5 205.164 146.446 204.592 146.337C204.028 146.237 203.578 146.12 203.242 145.984L204.387 142.152C205.105 142.36 205.746 142.46 206.31 142.451C206.873 142.442 207.369 142.265 207.796 141.921C208.233 141.586 208.601 141.024 208.901 140.236L209.323 139.108L201.728 117.802H206.964L211.792 133.564H212.01L216.851 117.802H222.101L213.714 141.201C213.324 142.306 212.805 143.252 212.16 144.041C211.514 144.838 210.723 145.445 209.787 145.861C208.86 146.287 207.751 146.5 206.46 146.5Z" fill="white"/>
</svg>
